<svg id="Layer_1" data-name="Layer 1" xmlns="http://www.w3.org/2000/svg" viewBox="0 0 120 121"><defs><style>.cls-1{fill:#4e89a8;}.cls-2{fill:#c9bb65;}.cls-3{opacity:0.25;}.cls-4{opacity:0.6;}.cls-5{fill:#7a6e14;}</style></defs><title>Kafka-S</title><rect class="cls-1" x="0.02" y="0.5" width="119.96" height="120"/><path class="cls-2" d="M59.76,70.65c-2.38,1.41-4.39,2.46-6.23,3.76a5.25,5.25,0,0,0-2.19,2.69c-.34,1.67-.48,3.33,1.95,4.35C58,83.42,60,88.12,58.84,93a9.71,9.71,0,0,1-9.47,7.42A10,10,0,0,1,39.52,93a9.67,9.67,0,0,1,5-11.25c2.08-1,2.72-2.08,2.78-4.33.06-2.48-1.56-2.59-3.1-3.28-5.07-2.27-7.82-6.27-7.84-11.8s2.7-9.54,7.75-11.85c1.5-.69,3.24-.74,3.17-3.24-.06-2.17-.54-3.4-2.69-4.38-4.26-2-6.18-6.56-5.14-11.2a10,10,0,0,1,19.17-.85c1.43,4.36,0,9.78-4.13,11.6-3.5,1.55-3.65,3.73-3.19,6.42a68,68,0,0,0,7.29,4.51c.86.4,2.59-.24,3.48-1a4.44,4.44,0,0,0,1.49-3.13c-.1-4.12,1.28-7.42,4.81-9.58a9.68,9.68,0,0,1,10.11-.19,10,10,0,0,1,3.78,13.63,9.76,9.76,0,0,1-13.9,3.48C66.29,55.12,65,55.45,63,56.49c-2.33,1.22-1.16,2.81-1,4.38a14.88,14.88,0,0,1-.05,3.06c-.19,1.51-1.13,3,1,4.06,1.75.85,3,1.76,5.08.16,3.77-2.87,9.32-2.13,12.57,1.06a10.25,10.25,0,0,1,1.55,12.28,10,10,0,0,1-11.54,4.43,9.57,9.57,0,0,1-6.87-10.54C64.32,71.62,61.07,72.13,59.76,70.65ZM49,55.24a7,7,0,1,0,7.08,6.85A7.12,7.12,0,0,0,49,55.24Zm.11-26A4.93,4.93,0,0,0,44.42,34a4.79,4.79,0,0,0,4.66,4.85,4.83,4.83,0,1,0,.07-9.66ZM73.72,81.15a4.81,4.81,0,0,0,4.73-4.8,4.87,4.87,0,0,0-5.1-4.76,4.78,4.78,0,0,0,.37,9.56ZM49.16,95.32a4.83,4.83,0,1,0-.09-9.66,4.79,4.79,0,0,0-4.65,4.85A4.93,4.93,0,0,0,49.16,95.32Zm29.29-47.1a4.82,4.82,0,0,0-4.69-4.83,4.78,4.78,0,1,0-.11,9.55A4.85,4.85,0,0,0,78.45,48.22Z"/><g class="cls-3"><g class="cls-4"><path class="cls-5" d="M54.53,81.89a3.05,3.05,0,0,0,2,1.91c.28.12.56.25.82.39A9.42,9.42,0,0,0,54.53,81.89Z"/></g><g class="cls-4"><path class="cls-5" d="M77,83.5a4.76,4.76,0,0,0,1.2-9.35,4.61,4.61,0,0,1,.59,2.2A4.81,4.81,0,0,1,74,81.15a4.65,4.65,0,0,1-1.4-.2A4.74,4.74,0,0,0,77,83.5Z"/></g><g class="cls-4"><path class="cls-5" d="M52.4,97.68a4.82,4.82,0,0,0,1.29-9.47,4.59,4.59,0,0,1,.61,2.4,4.89,4.89,0,0,1-4.84,4.71,4.21,4.21,0,0,1-1.17-.19A4.88,4.88,0,0,0,52.4,97.68Z"/></g><g class="cls-4"><path class="cls-5" d="M52.63,71.64a7.09,7.09,0,0,0,6.73-7.19A7.18,7.18,0,0,0,55,58.15a6.88,6.88,0,0,1,1.38,3.94,7.11,7.11,0,0,1-6.73,7.2A6.39,6.39,0,0,1,47,68.75,6.86,6.86,0,0,0,52.63,71.64Z"/></g><g class="cls-4"><path class="cls-5" d="M52.32,41.23a4.82,4.82,0,0,0,1.37-9.47,4.69,4.69,0,0,1,.61,2.15,4.86,4.86,0,0,1-4.92,5,4.68,4.68,0,0,1-1.13-.18A4.75,4.75,0,0,0,52.32,41.23Z"/></g><g class="cls-4"><path class="cls-5" d="M78.17,45.94a4.68,4.68,0,0,1,.58,2.28A4.85,4.85,0,0,1,74,52.94a5.27,5.27,0,0,1-1.33-.19,4.75,4.75,0,0,0,4.27,2.55,4.76,4.76,0,0,0,1.28-9.36Z"/></g><g class="cls-4"><path class="cls-5" d="M42.79,73.19a12.2,12.2,0,0,1-3.14-8.52c0-5.53,2.71-9.54,7.75-11.86,1.5-.69,3.24-.74,3.17-3.23-.06-2.18-.54-3.4-2.68-4.39-.25-.11-.48-.23-.7-.35a5.91,5.91,0,0,1,.44,2.38c.07,2.5-1.67,2.55-3.17,3.24-5,2.31-7.77,6.32-7.75,11.85A12,12,0,0,0,42.79,73.19Z"/></g><g class="cls-4"><path class="cls-5" d="M42.76,95.33c-1.09-4.61.83-9.28,5.05-11.25,2.08-1,2.72-2.08,2.78-4.33.06-2.44-1.5-2.59-3-3.25a4,4,0,0,1,.07.89c-.06,2.25-.7,3.36-2.78,4.33a9.87,9.87,0,0,0-.11,17.51A9.31,9.31,0,0,1,42.76,95.33Z"/></g><g class="cls-4"><path class="cls-5" d="M66.22,70.35c1.76.85,3,1.76,5.08.15a9.7,9.7,0,0,1,10.27-.6,8.3,8.3,0,0,0-.64-.69c-3.25-3.19-8.8-3.93-12.57-1.06a3.19,3.19,0,0,1-3.53.58A2.06,2.06,0,0,0,66.22,70.35Z"/></g><g class="cls-4"><path class="cls-5" d="M67,77.74c.43-3-1.51-3.28-3-4a4,4,0,0,1,0,1.65,9.5,9.5,0,0,0,5.07,9.81A9.34,9.34,0,0,1,67,77.74Z"/></g><g class="cls-4"><path class="cls-5" d="M58.94,53.32a35.87,35.87,0,0,1-4.42-2.62c0,.15,0,.31.07.46a69.77,69.77,0,0,0,7.29,4.52c.86.4,2.59-.24,3.48-1a4.44,4.44,0,0,0,1.49-3.13c-.09-4.12,1.29-7.43,4.81-9.58a9.67,9.67,0,0,1,9.93-.28,9.13,9.13,0,0,0-2.76-2.27,9.68,9.68,0,0,0-10.11.19c-3.52,2.16-4.9,5.46-4.81,9.58a4.47,4.47,0,0,1-1.48,3.13C61.53,53.08,59.8,53.72,58.94,53.32Z"/></g><g class="cls-4"><path class="cls-5" d="M44.58,42.65A10.11,10.11,0,0,1,42.74,34a9.94,9.94,0,0,1,9.11-7.51,10.47,10.47,0,0,1,5.37,1.15,10.08,10.08,0,0,0-8.31-3.51,10,10,0,0,0-9.11,7.51C38.79,36.14,40.57,40.6,44.58,42.65Z"/></g></g></svg>