<svg id="Layer_1" data-name="Layer 1" xmlns="http://www.w3.org/2000/svg" xmlns:xlink="http://www.w3.org/1999/xlink" viewBox="0 0 120 121"><defs><style>.cls-1{fill:#dd914b;}.cls-2{fill:none;}.cls-3{fill:url(#linear-gradient);}.cls-4{isolation:isolate;}.cls-5{clip-path:url(#clip-path);}.cls-6{clip-path:url(#clip-path-2);}.cls-7{clip-path:url(#clip-path-3);}.cls-8{clip-path:url(#clip-path-4);}.cls-9{clip-path:url(#clip-path-5);}.cls-10{fill:#f4b66c;}.cls-11{fill:#8d7223;}.cls-12{fill:#7f6720;}.cls-13{clip-path:url(#clip-path-6);}.cls-14{fill:#8e7323;}.cls-15{fill:#896f22;}.cls-16{fill:#846b21;}.cls-17{clip-path:url(#clip-path-7);}.cls-18{clip-path:url(#clip-path-8);}.cls-19{clip-path:url(#clip-path-9);}.cls-20{fill:#054c6e;}.cls-21{clip-path:url(#clip-path-10);}.cls-22{fill:#06557b;}.cls-23{fill:#055276;}.cls-24{fill:#054f72;}.cls-25{clip-path:url(#clip-path-11);}.cls-26{clip-path:url(#clip-path-12);}.cls-27{fill:#06547a;}.cls-28{clip-path:url(#clip-path-13);}.cls-29{fill:#fed648;}.cls-30{fill:#089bde;}</style><linearGradient id="linear-gradient" x1="60" y1="121" x2="60" gradientUnits="userSpaceOnUse"><stop offset="0" stop-color="#064260"/><stop offset="1" stop-color="#094d73"/></linearGradient><clipPath id="clip-path"><path class="cls-1" d="M78.78,44.54h-6a8.66,8.66,0,0,0,1.37-.12c6.52-1,13.12-1.53,19.69-2.25a15.72,15.72,0,0,1,1.66-.1h6a15.9,15.9,0,0,0-1.67.1c-6.56.72-13.16,1.23-19.68,2.25A8.76,8.76,0,0,1,78.78,44.54Z"/></clipPath><clipPath id="clip-path-2"><path class="cls-1" d="M81.2,87h-6c-2-5.73-3.4-10.73-5.36-15.51-1.24-3-.61-4.74,1.83-6.7,4.55-3.69,8.79-7.76,14-12.47h6c-5.26,4.71-9.5,8.78-14,12.47-2.44,2-3.08,3.68-1.84,6.7C77.8,76.22,79.25,81.22,81.2,87Z"/></clipPath><clipPath id="clip-path-3"><path class="cls-1" d="M72.35,54.5h-6c-2.26,0-3.42-1.18-4.31-3.69-1.66-4.66-3.74-9.18-5.89-14.38h6c2.16,5.2,4.24,9.72,5.9,14.38C68.93,53.32,70.09,54.5,72.35,54.5Z"/></clipPath><clipPath id="clip-path-4"><path class="cls-1" d="M85.85,99.81h-6a9.7,9.7,0,0,1-4.09-1c-4.32-2-17.63-8-22-9.93a3.17,3.17,0,0,1-2.11-3.22c0-2.77,6.34-2.69,6.26-6.06h6c.08,3.37-6.26,3.29-6.27,6.06a3.18,3.18,0,0,0,2.12,3.22c4.34,2,17.65,7.9,22,9.93A9.66,9.66,0,0,0,85.85,99.81Z"/></clipPath><clipPath id="clip-path-5"><path class="cls-1" d="M35.92,74.92h-6a1.26,1.26,0,0,1-.73-.18c-5.23-3.48-11.43-5.68-15.26-11-3.24-4.5-1.45-9.28,4.24-10.71a149.57,149.57,0,0,1,19-3.45c3.59-.43,5.36-1.81,6.29-5.35,1.31-5,3.12-9.79,4.83-14.64a15.89,15.89,0,0,1,2.11-4.12c1.88-2.6,4-3.89,6.13-3.89h6c-2.08,0-4.26,1.29-6.13,3.89a16.24,16.24,0,0,0-2.12,4.12c-1.7,4.85-3.52,9.68-4.82,14.64-.93,3.54-2.71,4.92-6.29,5.35a149.57,149.57,0,0,0-19,3.45c-5.69,1.43-7.48,6.21-4.24,10.71,3.83,5.33,10,7.53,15.26,11A1.24,1.24,0,0,0,35.92,74.92Z"/></clipPath><clipPath id="clip-path-6"><path class="cls-2" d="M54.27,97H50.2a2.22,2.22,0,0,0,0-4.44h4.07a2.22,2.22,0,0,1,0,4.44Z"/></clipPath><clipPath id="clip-path-7"><path class="cls-2" d="M54.22,77.77H50.47c6.63,0,6.43-6.33,6.42-6.66h3.75C60.65,71.44,60.85,77.77,54.22,77.77Z"/></clipPath><clipPath id="clip-path-8"><path class="cls-2" d="M37,83.9H33.21c0-6,5.83-6.13,6.2-6.13h3.75C42.79,77.77,37,77.87,37,83.9Z"/></clipPath><clipPath id="clip-path-9"><path class="cls-2" d="M48.22,100.43H44.47c-12.2,0-11.3-5.92-11.26-6.23H37C36.91,94.51,36,100.43,48.22,100.43Z"/></clipPath><clipPath id="clip-path-10"><path class="cls-2" d="M41.78,61.79H37.35a2.4,2.4,0,0,0,2.37-2.42h4.43A2.4,2.4,0,0,1,41.78,61.79Z"/></clipPath><clipPath id="clip-path-11"><path class="cls-2" d="M44.15,59.37H39.72a2.4,2.4,0,0,0-2.37-2.43h4.43A2.4,2.4,0,0,1,44.15,59.37Z"/></clipPath><clipPath id="clip-path-12"><path class="cls-2" d="M37,58.89H33.2c0-.26-.73-5.17,10.94-5.17h3.75C36.22,53.72,36.91,58.63,37,58.89Z"/></clipPath><clipPath id="clip-path-13"><path class="cls-2" d="M31.58,88.61H27.83c-.83,0-6.52-.37-6.52-11.59,0-10.52,5.72-11.18,7.15-11.18h3.75c-1.44,0-7.15.66-7.15,11.18C25.06,88.24,30.74,88.61,31.58,88.61Z"/></clipPath></defs><title>Pyspark-S copy 5</title><rect class="cls-3" x="-0.9" width="121.8" height="121"/><g class="cls-4"><g class="cls-4"><path class="cls-1" d="M78.78,44.54h-6a8.66,8.66,0,0,0,1.37-.12c6.52-1,13.12-1.53,19.69-2.25a15.72,15.72,0,0,1,1.66-.1h6a15.9,15.9,0,0,0-1.67.1c-6.56.72-13.16,1.23-19.68,2.25A8.76,8.76,0,0,1,78.78,44.54Z"/><g class="cls-5"><g class="cls-4"><path class="cls-1" d="M78.78,44.54h-6a8.66,8.66,0,0,0,1.37-.12c6.52-1,13.12-1.53,19.69-2.25a15.72,15.72,0,0,1,1.66-.1h6a15.9,15.9,0,0,0-1.67.1c-6.56.72-13.16,1.23-19.68,2.25a8.76,8.76,0,0,1-1.37.12"/></g></g></g><g class="cls-4"><path class="cls-1" d="M81.2,87h-6c-2-5.73-3.4-10.73-5.36-15.51-1.24-3-.61-4.74,1.83-6.7,4.55-3.69,8.79-7.76,14-12.47h6c-5.26,4.71-9.5,8.78-14,12.47-2.44,2-3.08,3.68-1.84,6.7C77.8,76.22,79.25,81.22,81.2,87Z"/><g class="cls-6"><g class="cls-4"><path class="cls-1" d="M81.2,87h-6c-2-5.73-3.4-10.73-5.36-15.51-1.24-3-.61-4.74,1.83-6.7,4.55-3.69,8.79-7.76,14-12.47h6c-5.26,4.71-9.5,8.78-14,12.47-2.44,2-3.08,3.68-1.84,6.7,2,4.78,3.42,9.78,5.37,15.51"/></g></g></g><g class="cls-4"><path class="cls-1" d="M72.35,54.5h-6c-2.26,0-3.42-1.18-4.31-3.69-1.66-4.66-3.74-9.18-5.89-14.38h6c2.16,5.2,4.24,9.72,5.9,14.38C68.93,53.32,70.09,54.5,72.35,54.5Z"/><g class="cls-7"><g class="cls-4"><path class="cls-1" d="M72.35,54.5h-6c-2.26,0-3.42-1.18-4.31-3.69-1.66-4.66-3.74-9.18-5.89-14.38h6c2.16,5.2,4.24,9.72,5.9,14.38.89,2.51,2,3.69,4.31,3.69"/></g></g></g><g class="cls-4"><path class="cls-1" d="M85.85,99.81h-6a9.7,9.7,0,0,1-4.09-1c-4.32-2-17.63-8-22-9.93a3.17,3.17,0,0,1-2.11-3.22c0-2.77,6.34-2.69,6.26-6.06h6c.08,3.37-6.26,3.29-6.27,6.06a3.18,3.18,0,0,0,2.12,3.22c4.34,2,17.65,7.9,22,9.93A9.66,9.66,0,0,0,85.85,99.81Z"/><g class="cls-8"><g class="cls-4"><path class="cls-1" d="M85.85,99.81h-6a9.7,9.7,0,0,1-4.09-1c-4.32-2-17.63-8-22-9.93a3.17,3.17,0,0,1-2.11-3.22c0-1.23,1.25-1.9,2.63-2.55h6c-1.38.65-2.63,1.32-2.64,2.55a3.18,3.18,0,0,0,2.12,3.22c4.34,2,17.65,7.9,22,9.93a9.66,9.66,0,0,0,4.09,1"/><path class="cls-1" d="M60.31,83.1h-6l.58-.28h6l-.58.28"/><path class="cls-1" d="M60.89,82.82h-6c1.56-.74,3.09-1.56,3-3.23h6c0,1.67-1.49,2.49-3,3.23"/></g></g></g><g class="cls-4"><path class="cls-1" d="M35.92,74.92h-6a1.26,1.26,0,0,1-.73-.18c-5.23-3.48-11.43-5.68-15.26-11-3.24-4.5-1.45-9.28,4.24-10.71a149.57,149.57,0,0,1,19-3.45c3.59-.43,5.36-1.81,6.29-5.35,1.31-5,3.12-9.79,4.83-14.64a15.89,15.89,0,0,1,2.11-4.12c1.88-2.6,4-3.89,6.13-3.89h6c-2.08,0-4.26,1.29-6.13,3.89a16.24,16.24,0,0,0-2.12,4.12c-1.7,4.85-3.52,9.68-4.82,14.64-.93,3.54-2.71,4.92-6.29,5.35a149.57,149.57,0,0,0-19,3.45c-5.69,1.43-7.48,6.21-4.24,10.71,3.83,5.33,10,7.53,15.26,11A1.24,1.24,0,0,0,35.92,74.92Z"/><g class="cls-9"><g class="cls-4"><path class="cls-1" d="M35.92,74.92h-6a1.26,1.26,0,0,1-.73-.18c-5.23-3.48-11.43-5.68-15.26-11-2.83-3.92-1.82-8.06,2.26-10h6c-4.08,2-5.09,6.09-2.26,10,3.83,5.33,10,7.53,15.26,11a1.24,1.24,0,0,0,.72.18"/><path class="cls-1" d="M22.2,53.72h-6a10.44,10.44,0,0,1,2-.7q3.83-1,7.7-1.71h6c-2.58.49-5.16,1.06-7.7,1.71a10.44,10.44,0,0,0-2,.7"/><path class="cls-1" d="M31.88,51.31h-6c3.76-.72,7.54-1.29,11.32-1.74.35,0,.67-.09,1-.15h6c-.31.06-.64.11-1,.15-3.78.45-7.56,1-11.32,1.74"/><path class="cls-1" d="M44.18,49.42h-6a8.41,8.41,0,0,0,2-.63h6a8.56,8.56,0,0,1-2,.63"/><path class="cls-1" d="M46.2,48.79h-6c1.67-.8,2.67-2.2,3.29-4.57,1.31-5,3.12-9.79,4.83-14.64a15.89,15.89,0,0,1,2.11-4.12,10,10,0,0,1,3.71-3.31h6a10,10,0,0,0-3.7,3.31,16.24,16.24,0,0,0-2.12,4.12c-1.7,4.85-3.52,9.68-4.82,14.64-.62,2.37-1.63,3.77-3.29,4.57"/><path class="cls-1" d="M60.13,22.15h-6a5.77,5.77,0,0,1,1.45-.49h6a6.05,6.05,0,0,0-1.45.49"/><path class="cls-1" d="M61.58,21.66h-6a5.31,5.31,0,0,1,1-.09h6a5.5,5.5,0,0,0-1,.09"/></g></g></g></g><path class="cls-10" d="M62.56,21.57c2.34,0,4.56,1.63,6.12,4.88C71,31.21,73,36.12,74.81,41.1c.85,2.35,1.84,3.44,4,3.44a8.76,8.76,0,0,0,1.37-.12c6.52-1,13.12-1.53,19.68-2.25a15.9,15.9,0,0,1,1.67-.1c2.45,0,4.64.75,5.75,3.39,1.31,3.11-.72,5.43-2.79,7.34-5.35,4.93-10.74,9.84-16.31,14.52-2.05,1.71-2.27,3.1-1.31,5.52,2,5.21,3.72,10.57,5.54,15.87,1.14,3.33,1.13,6.58-1.59,9.08a7.14,7.14,0,0,1-4.94,2,9.66,9.66,0,0,1-4.09-1c-4.32-2-17.63-8-22-9.93a3.18,3.18,0,0,1-2.12-3.22c0-2.77,6.35-2.69,6.27-6.06,4.91,2.11,11.88,5,17.26,7.36-2-5.73-3.4-10.73-5.37-15.51-1.24-3-.6-4.74,1.84-6.7,4.55-3.69,8.79-7.76,14-12.47C85,53,79.35,53.44,73.81,54.36a9,9,0,0,1-1.46.14c-2.26,0-3.42-1.18-4.31-3.69-1.66-4.66-3.74-9.18-5.9-14.38a55.32,55.32,0,0,0-5.07,14.31c-1.17,5-3.64,6.82-8.43,7.18S39,59.45,33.12,60.44l14.55,8.84C44.34,71.85,40.45,72.9,37,74.69a2.41,2.41,0,0,1-1,.23,1.24,1.24,0,0,1-.72-.18c-5.23-3.48-11.43-5.68-15.26-11-3.24-4.5-1.45-9.28,4.24-10.71a149.57,149.57,0,0,1,19-3.45c3.58-.43,5.36-1.81,6.29-5.35,1.3-5,3.12-9.79,4.82-14.64a16.24,16.24,0,0,1,2.12-4.12C58.3,22.86,60.48,21.57,62.56,21.57Z"/><line class="cls-11" x1="60.64" y1="65.53" x2="56.89" y2="65.53"/><rect class="cls-12" x="56.89" y="65.53" width="3.75" height="5.58"/><g class="cls-4"><g class="cls-13"><g class="cls-4"><path class="cls-14" d="M54.27,97H50.2a1.84,1.84,0,0,0,.41,0h4.06a1.75,1.75,0,0,1-.4,0"/><path class="cls-15" d="M54.67,97H50.61a1.8,1.8,0,0,0,.51-.17h4.07a1.77,1.77,0,0,1-.52.17"/><path class="cls-16" d="M55.19,96.79H51.12a2.23,2.23,0,0,0-.92-4.23h4.07a2.2,2.2,0,0,1,2.18,2.22,2.22,2.22,0,0,1-1.26,2"/></g></g></g><g class="cls-4"><g class="cls-17"><g class="cls-4"><path class="cls-14" d="M54.22,77.77H50.47a9,9,0,0,0,1.63-.14h3.75a9,9,0,0,1-1.63.14"/><path class="cls-15" d="M55.85,77.63H52.1a6.05,6.05,0,0,0,1.54-.5h3.75a6.05,6.05,0,0,1-1.54.5"/><path class="cls-16" d="M57.39,77.13H53.64c3.39-1.61,3.26-5.75,3.25-6h3.75c0,.27.14,4.41-3.25,6"/></g></g></g><rect class="cls-12" x="33.21" y="83.9" width="3.75" height="10.3"/><g class="cls-4"><g class="cls-18"><g class="cls-4"><path class="cls-16" d="M37,83.9H33.21a5.5,5.5,0,0,1,3.15-5.42h3.75A5.5,5.5,0,0,0,37,83.9"/><path class="cls-15" d="M40.11,78.48H36.36a7.42,7.42,0,0,1,1.78-.57h3.75a7.42,7.42,0,0,0-1.78.57"/><path class="cls-14" d="M41.89,77.91H38.14a7.22,7.22,0,0,1,1.27-.14h3.75a7.22,7.22,0,0,0-1.27.14"/></g></g></g><g class="cls-4"><g class="cls-19"><g class="cls-4"><path class="cls-16" d="M48.22,100.43H44.47c-12.2,0-11.3-5.92-11.26-6.23H37c-.05.31-.94,6.23,11.26,6.23"/></g></g></g><rect class="cls-20" x="44.35" y="64.24" width="3.75" height="1.61"/><g class="cls-4"><g class="cls-21"><g class="cls-4"><path class="cls-22" d="M41.78,61.79H37.35a2.12,2.12,0,0,0,.44,0h4.43a2.12,2.12,0,0,1-.44,0"/><path class="cls-23" d="M42.22,61.74H37.79a2,2,0,0,0,.56-.18h4.44a2.23,2.23,0,0,1-.57.18"/><path class="cls-24" d="M42.64,61.56H38.2a2.42,2.42,0,0,0,1.37-2.19H44a2.43,2.43,0,0,1-1.36,2.19"/></g></g></g><g class="cls-4"><g class="cls-25"><g class="cls-4"><path class="cls-24" d="M44,59.37H39.57a2.4,2.4,0,0,0-2.37-2.43h4.43A2.4,2.4,0,0,1,44,59.37"/></g></g></g><polygon class="cls-20" points="36.96 64.24 33.21 64.24 33.2 58.89 36.95 58.89 36.96 64.24"/><g class="cls-4"><g class="cls-26"><g class="cls-4"><path class="cls-24" d="M37,58.89H33.2c0-.17-.33-2.35,2.76-3.82h3.75c-3.09,1.47-2.79,3.65-2.76,3.82"/><path class="cls-23" d="M39.71,55.07H36a12.37,12.37,0,0,1,3-.93h3.75a12.37,12.37,0,0,0-3,.93"/><path class="cls-22" d="M42.72,54.14H39a28,28,0,0,1,5.17-.42h3.75a28,28,0,0,0-5.17.42"/></g></g></g><line class="cls-27" x1="44.35" y1="65.85" x2="48.1" y2="65.85"/><g class="cls-4"><g class="cls-28"><g class="cls-4"><path class="cls-24" d="M31.58,88.61H27.83c-.83,0-6.52-.37-6.52-11.59,0-6.94,2.48-9.59,4.59-10.59h3.74c-2.1,1-4.58,3.65-4.58,10.59,0,11.22,5.68,11.59,6.52,11.59"/><path class="cls-23" d="M29.64,66.43H25.9a6.29,6.29,0,0,1,1.49-.49h3.75a6.35,6.35,0,0,0-1.5.49"/><path class="cls-22" d="M31.14,65.94H27.39a6.19,6.19,0,0,1,1.07-.1h3.75a6.19,6.19,0,0,0-1.07.1"/></g></g></g><path class="cls-29" d="M64.53,65.53c.83,0,6.52.37,6.52,11.6,0,10.53-5.72,11.18-7.15,11.18H48v1.6H59.15l0,5.36c0,.26.73,5.17-11,5.17C36,100.43,36.91,94.51,37,94.2V83.9c0-6,5.83-6.13,6.2-6.13H54.22c6.63,0,6.43-6.33,6.42-6.66V65.53ZM52.36,94.78a2,2,0,0,0,2,2h0a2,2,0,1,0-2-2"/><path class="cls-30" d="M47.89,53.72c12.2,0,11.3,5.92,11.26,6.23v10.3c0,6-5.8,6.12-6.19,6.12H41.89c-6.63,0-6.42,6.33-6.41,6.66v5.58h-3.9c-.84,0-6.52-.37-6.52-11.59,0-10.52,5.71-11.18,7.15-11.18H48.1V64.24H37V58.89C36.91,58.63,36.22,53.72,47.89,53.72Zm-4.14,5.65a2,2,0,0,0-2-2,2,2,0,0,0,0,4.09,2,2,0,0,0,2-2"/></svg>