<svg id="Layer_1" data-name="Layer 1" xmlns="http://www.w3.org/2000/svg" xmlns:xlink="http://www.w3.org/1999/xlink" viewBox="0 0 120 121"><defs><style>.cls-1{fill:#4285f4;}.cls-2{clip-path:url(#clip-path);}.cls-3{fill:#ff0;}</style><clipPath id="clip-path"><rect class="cls-1" x="-640.25" y="-62.19" width="166.14" height="191"/></clipPath></defs><title>cassandra-S copy 4</title><rect class="cls-1" x="-640.25" y="-62.19" width="166.14" height="191"/><g class="cls-2"><path class="cls-1" d="M16.46,40.65q0,13.62,0,27.25A11.39,11.39,0,0,1,1.51,79c-2.8-.85-5.57-1.77-8.35-2.67-1.81-.59-2.64-2-2.14-3.52s2-2.28,3.87-1.69c2.63.82,5.24,1.68,7.86,2.5,4.49,1.41,8.12-1.21,8.12-5.91q0-27.12,0-54.24c0-3.28-1.45-5.21-4.6-6.16L-74.34-16.92c-4.9-1.47-8.37,1.15-8.37,6.3V26.06c0,2.27-1.6,3.62-3.55,3a2.51,2.51,0,0,1-1.94-2.44c0-1.08,0-2.15,0-3.23,0-11.49.16-23-.06-34.48a11.59,11.59,0,0,1,15.1-11.28Q-32.65-10.09,7.91,2.06c5.6,1.68,8.55,5.74,8.55,11.59Z"/><path class="cls-1" d="M15.62,41.29q0,13.6,0,27.21A11.37,11.37,0,0,1,.69,79.59c-2.79-.84-5.56-1.76-8.34-2.66-1.8-.59-2.63-2-2.13-3.52s2-2.27,3.86-1.69c2.62.82,5.23,1.68,7.85,2.5C6.42,75.64,10,73,10,68.33q0-27.09,0-54.17C10,10.89,8.59,9,5.44,8L-75-16.19C-79.93-17.66-83.4-15-83.4-9.9V26.73c0,2.26-1.6,3.61-3.54,3a2.53,2.53,0,0,1-2-2.44c0-1.07,0-2.15,0-3.22,0-11.48.16-23-.06-34.43A11.57,11.57,0,0,1-73.89-21.61Q-33.4-9.39,7.08,2.76c5.59,1.68,8.54,5.73,8.54,11.58Z"/><path class="cls-1" d="M14.78,41.93V69.1A11.36,11.36,0,0,1-.13,80.18c-2.79-.85-5.55-1.76-8.32-2.66-1.8-.59-2.63-2-2.13-3.52s2-2.26,3.86-1.68c2.61.82,5.22,1.68,7.83,2.5,4.48,1.41,8.09-1.21,8.1-5.89q0-27,0-54.08c0-3.27-1.45-5.2-4.59-6.15L-75.75-15.46c-4.88-1.47-8.34,1.14-8.34,6.28q0,18.29,0,36.57c0,2.26-1.59,3.61-3.53,3A2.52,2.52,0,0,1-89.57,28c-.05-1.07,0-2.14,0-3.21,0-11.46.16-22.93,0-34.38a11.54,11.54,0,0,1,15-11.24Q-34.18-8.68,6.26,3.46C11.82,5.13,14.78,9.19,14.78,15Z"/><path class="cls-1" d="M13.94,42.57V69.7A11.34,11.34,0,0,1-.95,80.76c-2.78-.84-5.54-1.75-8.31-2.65-1.8-.59-2.62-2-2.13-3.51s2-2.26,3.86-1.68c2.61.81,5.21,1.67,7.82,2.49,4.47,1.41,8.08-1.2,8.09-5.88q0-27,0-54c0-3.26-1.45-5.19-4.59-6.13L-76.45-14.73c-4.88-1.47-8.33,1.14-8.33,6.27q0,18.26,0,36.51c0,2.26-1.59,3.61-3.53,3a2.51,2.51,0,0,1-1.93-2.43c0-1.07,0-2.14,0-3.22,0-11.44.16-22.88-.06-34.32a11.54,11.54,0,0,1,15-11.23Q-34.95-7.94,5.43,4.16C11,5.83,13.94,9.88,13.94,15.7Z"/><path class="cls-1" d="M13.1,43.22V70.3a11.32,11.32,0,0,1-14.86,11c-2.78-.84-5.54-1.75-8.3-2.66-1.8-.58-2.62-2-2.13-3.5s2-2.26,3.85-1.68c2.61.82,5.21,1.67,7.81,2.49,4.47,1.41,8.07-1.19,8.07-5.87q0-27,0-53.92C7.55,13,6.1,11,3,10.09L-77.16-14c-4.87-1.47-8.31,1.14-8.32,6.26q0,18.23,0,36.46c0,2.25-1.59,3.59-3.52,3a2.51,2.51,0,0,1-1.94-2.43c0-1.07,0-2.14,0-3.21,0-11.42.15-22.85-.06-34.27A11.52,11.52,0,0,1-76-19.4Q-35.7-7.23,4.6,4.86c5.54,1.66,8.5,5.72,8.5,11.53Z"/><path class="cls-1" d="M12.26,43.86V70.91a11.3,11.3,0,0,1-14.84,11c-2.78-.84-5.53-1.75-8.29-2.65-1.79-.58-2.62-2-2.12-3.49s2-2.26,3.84-1.68c2.61.82,5.2,1.67,7.8,2.49,4.46,1.4,8.06-1.2,8.06-5.87q0-26.91,0-53.83c0-3.26-1.44-5.18-4.57-6.12l-80-24c-4.86-1.46-8.31,1.13-8.31,6.25v36.4c0,2.25-1.59,3.59-3.52,3A2.5,2.5,0,0,1-91.62,30c0-1.07,0-2.14,0-3.21,0-11.41.16-22.82,0-34.22a11.5,11.5,0,0,1,15-11.2Q-36.48-6.5,3.78,5.56c5.51,1.66,8.48,5.71,8.48,11.51Z"/><path class="cls-1" d="M11.42,44.5v27a11.29,11.29,0,0,1-14.82,11c-2.77-.84-5.52-1.75-8.27-2.65-1.79-.58-2.62-2-2.12-3.49s2-2.25,3.83-1.67c2.6.81,5.19,1.66,7.79,2.48,4.45,1.4,8.05-1.19,8.05-5.85q0-26.88,0-53.76c0-3.25-1.44-5.17-4.56-6.11l-79.89-24c-4.85-1.45-8.29,1.14-8.29,6.25q0,18.17,0,36.35c0,2.24-1.58,3.58-3.51,3a2.51,2.51,0,0,1-1.93-2.42c0-1.07,0-2.13,0-3.2,0-11.39.16-22.79-.06-34.17a11.49,11.49,0,0,1,15-11.18Q-37.25-5.79,3,6.26c5.5,1.65,8.47,5.7,8.47,11.49Z"/><path class="cls-1" d="M10.58,45.14v27a11.27,11.27,0,0,1-14.8,11c-2.76-.83-5.51-1.74-8.26-2.64-1.79-.58-2.61-2-2.11-3.48s2-2.25,3.83-1.67C-8.17,76.12-5.58,77-3,77.78c4.45,1.4,8-1.19,8-5.84q0-26.83,0-53.68C5.05,15,3.61,13.1.49,12.17l-79.76-24c-4.85-1.45-8.28,1.14-8.28,6.24q0,18.13,0,36.29c0,2.24-1.58,3.58-3.5,3A2.51,2.51,0,0,1-93,31.28c-.05-1.06,0-2.13,0-3.19,0-11.38.16-22.75,0-34.12A11.47,11.47,0,0,1-78.12-17.19Q-38-5.07,2.12,7c5.48,1.65,8.46,5.7,8.46,11.47Z"/><path class="cls-1" d="M9.74,45.79V72.71A11.25,11.25,0,0,1-5,83.69c-2.77-.84-5.51-1.74-8.25-2.64-1.79-.58-2.61-2-2.12-3.48s2-2.24,3.83-1.67c2.59.81,5.17,1.66,7.76,2.48,4.44,1.4,8-1.19,8-5.84q0-26.79,0-53.6c0-3.23-1.44-5.15-4.55-6.08L-80-11.09c-4.84-1.45-8.26,1.13-8.27,6.23q0,18.12,0,36.24c0,2.23-1.58,3.57-3.5,3A2.49,2.49,0,0,1-93.67,32c0-1.07,0-2.13,0-3.19,0-11.36.16-22.72-.06-34.07A11.46,11.46,0,0,1-78.83-16.46Q-38.78-4.36,1.29,7.66C6.76,9.3,9.74,13.35,9.74,19.12Z"/><path class="cls-1" d="M8.9,46.43V73.31a11.23,11.23,0,0,1-14.75,11c-2.76-.83-5.5-1.73-8.24-2.63-1.78-.58-2.6-2-2.11-3.47s2-2.25,3.82-1.67c2.59.81,5.17,1.66,7.75,2.47,4.44,1.4,8-1.19,8-5.83q0-26.76,0-53.51c0-3.24-1.44-5.14-4.55-6.08q-39.75-12-79.52-23.91c-4.83-1.45-8.26,1.13-8.26,6.21V32c0,2.24-1.58,3.57-3.5,3a2.51,2.51,0,0,1-1.92-2.41c0-1.06,0-2.12,0-3.19,0-11.34.15-22.68-.06-34A11.43,11.43,0,0,1-79.54-15.72q40,12.08,80,24.08C5.91,10,8.9,14.05,8.9,19.8Z"/><path class="cls-1" d="M8.06,47.07V73.92A11.22,11.22,0,0,1-6.67,84.86c-2.76-.83-5.49-1.74-8.22-2.63-1.79-.58-2.6-2-2.11-3.47s2-2.24,3.81-1.66c2.59.81,5.16,1.65,7.74,2.47,4.43,1.39,8-1.19,8-5.83q0-26.71,0-53.43c0-3.23-1.44-5.13-4.54-6.07L-81.38-9.63c-4.83-1.45-8.25,1.13-8.25,6.2V32.7c0,2.24-1.58,3.57-3.49,3A2.48,2.48,0,0,1-95,33.27c0-1.06,0-2.12,0-3.18,0-11.32.16-22.65,0-34A11.41,11.41,0,0,1-80.24-15Q-40.33-2.92-.36,9.06c5.43,1.63,8.42,5.68,8.42,11.42Z"/><path class="cls-1" d="M7.22,47.71V74.52A11.2,11.2,0,0,1-7.49,85.44c-2.75-.83-5.48-1.73-8.21-2.62-1.78-.58-2.59-1.95-2.1-3.46s2-2.24,3.8-1.67c2.59.81,5.15,1.66,7.73,2.47,4.42,1.39,8-1.19,8-5.81q0-26.68,0-53.36c0-3.22-1.43-5.12-4.53-6L-82.09-8.9c-4.82-1.45-8.23,1.13-8.23,6.19q0,18,0,36.08c0,2.23-1.57,3.56-3.48,3a2.49,2.49,0,0,1-1.92-2.4c0-1.06,0-2.12,0-3.18,0-11.3.15-22.61-.06-33.92A11.4,11.4,0,0,1-80.95-14.25q39.87,12,79.76,24c5.41,1.63,8.41,5.68,8.41,11.41Z"/><path class="cls-1" d="M6.38,48.36V75.12A11.19,11.19,0,0,1-8.31,86c-2.74-.83-5.47-1.73-8.2-2.62-1.77-.58-2.59-2-2.1-3.46s2-2.23,3.81-1.66c2.57.81,5.14,1.65,7.71,2.46,4.42,1.39,8-1.18,8-5.8q0-26.64,0-53.27c0-3.22-1.43-5.12-4.52-6Q-43.21,3.72-82.79-8.17C-87.61-9.62-91-7-91-2q0,18,0,36c0,2.23-1.57,3.56-3.48,3a2.47,2.47,0,0,1-1.91-2.4c0-1.06,0-2.11,0-3.17,0-11.29.16-22.58,0-33.87A11.38,11.38,0,0,1-81.66-13.51q39.81,12,79.64,24c5.4,1.62,8.4,5.67,8.4,11.39Z"/><path class="cls-1" d="M5.54,49V75.72A11.17,11.17,0,0,1-9.12,86.62c-2.75-.83-5.47-1.73-8.19-2.62-1.77-.58-2.59-2-2.1-3.45s2-2.23,3.8-1.66c2.57.8,5.13,1.65,7.71,2.46,4.4,1.38,8-1.19,8-5.8q0-26.59,0-53.19c0-3.21-1.43-5.11-4.52-6l-79-23.77c-4.8-1.44-8.2,1.13-8.21,6.18q0,18,0,36c0,2.22-1.57,3.54-3.48,3a2.47,2.47,0,0,1-1.9-2.4c0-1,0-2.11,0-3.16,0-11.27.16-22.55-.06-33.82a11.36,11.36,0,0,1,14.81-11q39.74,12,79.52,23.93c5.37,1.62,8.38,5.66,8.38,11.37Z"/><path class="cls-1" d="M4.7,49.64V76.32A11.15,11.15,0,0,1-9.94,87.2c-2.74-.83-5.46-1.72-8.18-2.61-1.77-.58-2.58-2-2.09-3.45s2-2.23,3.79-1.65c2.57.8,5.13,1.64,7.7,2.45,4.39,1.38,7.94-1.18,8-5.79q0-26.55,0-53.11c0-3.21-1.43-5.1-4.51-6L-84.2-6.72C-89-8.16-92.4-5.59-92.4-.55V35.36c0,2.22-1.57,3.54-3.47,3a2.48,2.48,0,0,1-1.91-2.39c0-1.06,0-2.11,0-3.16,0-11.26.15-22.52-.06-33.77A11.35,11.35,0,0,1-83.07-12q39.69,12,79.4,23.9C1.69,13.47,4.7,17.52,4.7,23.21Z"/><path class="cls-1" d="M3.86,50.29V76.93A11.14,11.14,0,0,1-10.76,87.79c-2.73-.83-5.45-1.73-8.16-2.61-1.77-.58-2.58-1.94-2.09-3.45s2-2.22,3.78-1.65c2.57.81,5.12,1.65,7.69,2.45,4.39,1.38,7.93-1.18,7.93-5.77q0-26.52,0-53c0-3.21-1.43-5.1-4.51-6L-84.91-6C-89.7-7.43-93.09-4.87-93.09.17q0,17.92,0,35.86c0,2.21-1.56,3.53-3.46,2.95a2.47,2.47,0,0,1-1.9-2.39c-.05-1.05,0-2.1,0-3.16,0-11.23.16-22.47,0-33.71a11.33,11.33,0,0,1,14.75-11Q-44.15.67-4.5,12.56C.84,14.17,3.86,18.21,3.86,23.9Z"/><path class="cls-1" d="M3,50.93v26.6a11.12,11.12,0,0,1-14.6,10.84c-2.73-.82-5.44-1.72-8.15-2.6-1.76-.58-2.57-1.94-2.08-3.44s1.95-2.22,3.77-1.65c2.57.8,5.12,1.64,7.68,2.45C-6,84.51-2.44,82-2.44,77.36q0-26.47,0-52.95c0-3.2-1.43-5.09-4.5-6L-85.61-5.26C-90.4-6.7-93.78-4.14-93.78.89q0,17.9,0,35.8c0,2.21-1.56,3.53-3.46,3a2.47,2.47,0,0,1-1.9-2.39c0-1,0-2.1,0-3.15,0-11.22.15-22.44-.06-33.66a11.31,11.31,0,0,1,14.74-11q39.56,12,79.15,23.82C0,14.86,3,18.91,3,24.58Z"/><path class="cls-1" d="M2.18,51.57V78.13A11.11,11.11,0,0,1-12.4,89c-2.72-.83-5.43-1.72-8.13-2.6-1.76-.58-2.57-1.94-2.09-3.44s2-2.21,3.78-1.64c2.55.8,5.1,1.63,7.66,2.44C-6.81,85.1-3.27,82.54-3.27,78q0-26.43,0-52.87c0-3.19-1.42-5.08-4.49-6L-86.32-4.53C-91.09-6-94.47-3.41-94.47,1.61q0,17.87,0,35.75c0,2.2-1.56,3.52-3.45,2.94a2.46,2.46,0,0,1-1.9-2.38c0-1.05,0-2.1,0-3.15,0-11.2.16-22.41-.05-33.61a11.3,11.3,0,0,1,14.71-11Q-45.68,2.11-6.15,14c5.3,1.6,8.33,5.64,8.33,11.3Z"/><path class="cls-1" d="M1.34,52.21V78.73A11.08,11.08,0,0,1-13.21,89.54c-2.72-.82-5.42-1.71-8.13-2.59-1.76-.58-2.56-1.94-2.08-3.43s2-2.21,3.77-1.65c2.55.8,5.09,1.64,7.65,2.44,4.37,1.38,7.9-1.17,7.9-5.75q0-26.39,0-52.78c0-3.19-1.42-5.08-4.48-6Q-47.8,8-87-3.8c-4.77-1.44-8.15,1.11-8.15,6.13V38c0,2.2-1.56,3.52-3.45,2.94a2.45,2.45,0,0,1-1.89-2.38c0-1,0-2.09,0-3.14,0-11.19.16-22.38-.06-33.56a11.28,11.28,0,0,1,14.69-11Q-46.45,2.82-7,14.66C-1.69,16.25,1.34,20.3,1.34,26Z"/><path class="cls-1" d="M.5,52.86V79.33A11.07,11.07,0,0,1-14,90.13c-2.72-.82-5.41-1.71-8.11-2.6-1.76-.57-2.57-1.92-2.08-3.42s1.95-2.21,3.76-1.64c2.55.8,5.09,1.63,7.64,2.44,4.36,1.37,7.88-1.18,7.89-5.75q0-26.34,0-52.7c0-3.19-1.42-5.07-4.48-6L-87.73-3.08C-92.49-4.51-95.86-2-95.86,3V38.68c0,2.2-1.56,3.52-3.45,2.94a2.47,2.47,0,0,1-1.89-2.38c0-1,0-2.09,0-3.13,0-11.17.15-22.34-.06-33.51A11.26,11.26,0,0,1-86.6-8.35Q-47.23,3.55-7.81,15.36A11.08,11.08,0,0,1,.5,26.63Z"/></g><rect class="cls-1" width="120" height="121"/><path class="cls-3" d="M107.88,53.8a2.79,2.79,0,0,0-1-.67,7.1,7.1,0,0,0-1.24-.36c-.42-.08-.85-.14-1.29-.19a3,3,0,0,0-1.23.08,2.44,2.44,0,0,0-1,.65,4.77,4.77,0,0,0-.71,1,12.19,12.19,0,0,0-.84,2.47c-.21.86-.38,1.73-.54,2.6a43.24,43.24,0,0,1-1.19,5.22,10.08,10.08,0,0,1-1.15,2.47,5,5,0,0,1-2.07,1.81,4.92,4.92,0,0,1-1.35.37,4.39,4.39,0,0,1-1.4,0,3.24,3.24,0,0,1-1.32-.54,3.66,3.66,0,0,1-1-1,7,7,0,0,1-1-2.58,16.44,16.44,0,0,1-.25-2.7,34.47,34.47,0,0,1,.38-5.37V57a23.66,23.66,0,0,0,.23-13.51,24.09,24.09,0,0,0-7.15-11.39,23.75,23.75,0,0,0-12.12-5.69,22.33,22.33,0,0,0-10.22.69h-.08l-.54.17-.07,0h0l-.64.21h0a4.17,4.17,0,0,0-.44-.19c-.41-.16-.81-.3-1.22-.43a12.7,12.7,0,0,0-1.31-.35,8.88,8.88,0,0,0-2.56-.19,4.66,4.66,0,0,0-2.28.73,8,8,0,0,0-1.81,1.73A24.74,24.74,0,0,0,46.84,33c-1.61,3.54-3.11,7.1-4.36,10.73a49.22,49.22,0,0,0-2.16,8.45,19.27,19.27,0,0,0-.25,4.2,12.4,12.4,0,0,0,.28,2,2.41,2.41,0,0,0,.78,1.34,8.06,8.06,0,0,0,3.59,1.59,25.28,25.28,0,0,0,4.3.53,50.21,50.21,0,0,0,8.82-.45c1.46-.21,2.93-.46,4.35-.81a10.91,10.91,0,0,0,2-.68,2.5,2.5,0,0,0,1.19-1.45,6.37,6.37,0,0,0-.12-3.37l.6,0a6.86,6.86,0,0,1,.28,3.61,3.31,3.31,0,0,1-1.47,2,11,11,0,0,1-2.19.91,38.07,38.07,0,0,1-4.43,1.07,51.9,51.9,0,0,1-9.07.87,27,27,0,0,1-4.64-.37,10.06,10.06,0,0,1-4.61-1.84A4.64,4.64,0,0,1,38.15,59a15.48,15.48,0,0,1-.45-2.41,20.88,20.88,0,0,1,.15-4.75A38.57,38.57,0,0,1,40.37,43c.49-1.22,1-2.41,1.6-3.6l-1.81,1.37-.08.06-.1,0-3.6.83-.45.1-.44.13-.87.26c-.29.1-.58.19-.86.3l-.86.32a28.31,28.31,0,0,0-6.43,3.47,20.41,20.41,0,0,0-5.09,5.23,14.85,14.85,0,0,0-2.5,6.74l-.2,0h-.09l-.16,0-.34.08-.67.17a11.63,11.63,0,0,0-1.29.46,8.89,8.89,0,0,0-2.34,1.39,5.55,5.55,0,0,0-1.57,2.15,5.72,5.72,0,0,0-.31,2.63c0,.22.06.45.1.66a1.13,1.13,0,0,0,.32.59c1.14.9,2-.76,2.47-2.21A3.54,3.54,0,0,1,16.39,62a4.86,4.86,0,0,1,2.91-.33l0,.13q.09.48.21,1c.08.31.18.64.28.94s.23.62.36.92.25.62.38.9l0,0v0a30.54,30.54,0,0,1,.77,3.14c.21,1,.4,2.1.58,3.15.36,2.1.68,4.21,1,6.31s.58,4.22.84,6.33q.38,2.9.7,5.81c2,.11,4.1.18,6.15.18s4.12,0,6.16-.24c0-.08,0-.16,0-.25s.08-.5.12-.76c.06-.51.12-1,.17-1.56.1-1,.18-2.11.25-3.17q.22-3.16.38-6.35l0-.84.82.17a37.3,37.3,0,0,0,9.25.73,37.7,37.7,0,0,0,4.62-.49A35.17,35.17,0,0,0,57,76.65l1-.31-.06,1.07c-.06,1.12-.09,2.27-.12,3.41s0,2.29-.06,3.43,0,2.29,0,3.44c0,.57,0,1.14,0,1.71l0,.84a1.34,1.34,0,0,0,0,.2c2,.1,4,.17,6.08.19s4.21,0,6.3-.16c.11-.24.23-.51.34-.77s.31-.79.46-1.19c.31-.8.6-1.61.88-2.42q.85-2.43,1.67-4.89c1-3,2-6,2.9-8.93l.37-1.15L77,71l.82-.4.43-.21.29.34.46.55.46.52c.31.33.63.67,1,1a19.88,19.88,0,0,0,2.12,1.77A16.43,16.43,0,0,0,84.88,76a15.47,15.47,0,0,0,2.55,1,13.78,13.78,0,0,0,5.42.44A13.17,13.17,0,0,0,98,75.62a13,13,0,0,0,4-3.75,12.62,12.62,0,0,0,1.3-2.43c.17-.43.32-.86.46-1.32l.43-1.35c1.16-3.61,2.38-7.19,3.61-10.77v0l0,0a2.34,2.34,0,0,0,.43-1.09A1.32,1.32,0,0,0,107.88,53.8ZM72.65,45h0c.07-2.64,1.18-4.12,5.32-4.22A6.93,6.93,0,0,0,72.65,45Zm5.73,5.91h-.13a1.38,1.38,0,1,0-2-1.22,1.52,1.52,0,0,0,.06.32,2.83,2.83,0,1,1,4.91-1.93A2.84,2.84,0,0,1,78.38,50.94Z"/></svg>