<svg id="Layer_1" data-name="Layer 1" xmlns="http://www.w3.org/2000/svg" viewBox="0 0 120 121"><defs><style>.cls-1{fill:#ebcb7d;}.cls-2,.cls-4{fill:#404041;}.cls-3{fill:#ffdd15;}.cls-4{stroke:#ffdd15;stroke-miterlimit:10;}</style></defs><title>Hadoop Admin-S copy 6</title><rect class="cls-1" y="0.5" width="120" height="120"/><ellipse class="cls-2" cx="43.88" cy="52.2" rx="21.46" ry="16.3"/><ellipse class="cls-2" cx="60.03" cy="47.96" rx="13.58" ry="12.05"/><path class="cls-2" d="M73.68,46.54s10.11,12.1,8.07,26.93l-6.1,2.33s4.54-10-7.9-17.51"/><polyline class="cls-2" points="61.02 55.22 61.02 85.1 52.38 85.1 50.91 67.55"/><polyline class="cls-2" points="35.47 65.61 34.36 85.1 25.52 85.1 23.91 49.24"/><path class="cls-2" d="M22.42,52.2s-1.08-1-5.26,9c0,0,4.15-13.13,6.6-14.63"/><ellipse class="cls-3" cx="67.23" cy="44.58" rx="1.08" ry="1.01"/><path class="cls-4" d="M53.16,52,48.62,37.15S60.51,37.3,61,39.83"/><path class="cls-2" d="M97.68,54.51a3.2,3.2,0,1,1,3.19-3.19A3.19,3.19,0,0,1,97.68,54.51Z"/><path class="cls-2" d="M87.51,61.53a14.66,14.66,0,0,1,3.1,1A29.12,29.12,0,0,1,91.67,58a4,4,0,0,1,2.94-1.91l.76-.16L95.93,58a9.21,9.21,0,0,0,.72,2.06c.31,0,.48-2.7.2-3s.14-1.11.83-1,1.18.62.83,1-.11,3,.19,3A8.18,8.18,0,0,0,99.42,58L100,56l.75.16a4,4,0,0,1,3,1.91c.58,1.09,2.38,11.52,2.11,12.23a1.61,1.61,0,0,1-1.35.87c-.67,0-1.23-.73-1.43-1.85-.11-.63-.4-2.12-.64-3.31l-.44-2.17-.15,1.33a12.91,12.91,0,0,0-.07,2.28c0,.53.15,2.42.24,4.21s.27,4.76.39,6.62c.33,5.11.3,5.81-.26,6.37a1.9,1.9,0,0,1-2.54,0c-.37-.41-.55-1.44-1-5.71,0-.14-.61-7.35-.74-7.58h-.29c-.12.2-.72,7.44-.74,7.58-.44,4.27-.61,5.3-1,5.71a1.9,1.9,0,0,1-2.54,0c-.56-.56-.58-1.26-.25-6.37.12-1.86.29-4.83.38-6.62s.2-3.68.25-4.21a13.94,13.94,0,0,0-.07-2.28l-.16-1.33c-.35,1.74.47,3.16-5.56.64-1-.43-1.62-1.13-1.49-1.8A1.62,1.62,0,0,1,87.51,61.53Z"/><polygon class="cls-2" points="77.17 49.9 86.4 61.71 85.95 62.05 77.1 49.95 77.17 49.9"/></svg>