<svg xmlns="http://www.w3.org/2000/svg" xmlns:xlink="http://www.w3.org/1999/xlink" viewBox="0 0 120 120"><defs><style>.cls-1{isolation:isolate;}.cls-2{fill:#e27a3f;}.cls-3{opacity:0.1;fill:url(#radial-gradient);}.cls-4{fill:#fc9;}.cls-5{fill:#fff;}.cls-6{opacity:0.2;mix-blend-mode:multiply;}.cls-10,.cls-100,.cls-101,.cls-102,.cls-103,.cls-104,.cls-105,.cls-106,.cls-107,.cls-108,.cls-109,.cls-11,.cls-110,.cls-111,.cls-112,.cls-113,.cls-114,.cls-115,.cls-116,.cls-117,.cls-118,.cls-119,.cls-12,.cls-120,.cls-121,.cls-122,.cls-123,.cls-124,.cls-125,.cls-126,.cls-127,.cls-128,.cls-129,.cls-13,.cls-130,.cls-131,.cls-132,.cls-133,.cls-134,.cls-135,.cls-136,.cls-137,.cls-138,.cls-139,.cls-14,.cls-140,.cls-141,.cls-142,.cls-143,.cls-144,.cls-145,.cls-146,.cls-147,.cls-148,.cls-149,.cls-15,.cls-150,.cls-151,.cls-152,.cls-153,.cls-154,.cls-155,.cls-156,.cls-157,.cls-158,.cls-159,.cls-16,.cls-160,.cls-161,.cls-162,.cls-163,.cls-164,.cls-165,.cls-166,.cls-167,.cls-168,.cls-169,.cls-17,.cls-170,.cls-171,.cls-172,.cls-173,.cls-174,.cls-175,.cls-176,.cls-177,.cls-178,.cls-179,.cls-18,.cls-180,.cls-181,.cls-182,.cls-183,.cls-184,.cls-185,.cls-186,.cls-187,.cls-188,.cls-189,.cls-19,.cls-190,.cls-191,.cls-192,.cls-193,.cls-194,.cls-195,.cls-196,.cls-197,.cls-198,.cls-199,.cls-20,.cls-200,.cls-201,.cls-202,.cls-203,.cls-204,.cls-205,.cls-206,.cls-207,.cls-208,.cls-209,.cls-21,.cls-210,.cls-211,.cls-212,.cls-213,.cls-214,.cls-215,.cls-216,.cls-217,.cls-218,.cls-219,.cls-22,.cls-220,.cls-221,.cls-222,.cls-223,.cls-224,.cls-225,.cls-226,.cls-227,.cls-228,.cls-229,.cls-23,.cls-230,.cls-231,.cls-232,.cls-233,.cls-234,.cls-235,.cls-236,.cls-237,.cls-238,.cls-239,.cls-24,.cls-240,.cls-241,.cls-242,.cls-243,.cls-244,.cls-245,.cls-246,.cls-247,.cls-248,.cls-249,.cls-25,.cls-250,.cls-251,.cls-252,.cls-253,.cls-254,.cls-255,.cls-256,.cls-257,.cls-258,.cls-259,.cls-26,.cls-260,.cls-261,.cls-262,.cls-263,.cls-264,.cls-265,.cls-266,.cls-267,.cls-268,.cls-269,.cls-27,.cls-270,.cls-271,.cls-272,.cls-273,.cls-274,.cls-275,.cls-276,.cls-277,.cls-278,.cls-279,.cls-28,.cls-280,.cls-281,.cls-282,.cls-283,.cls-284,.cls-285,.cls-286,.cls-287,.cls-288,.cls-289,.cls-29,.cls-290,.cls-291,.cls-292,.cls-293,.cls-294,.cls-295,.cls-296,.cls-297,.cls-298,.cls-299,.cls-30,.cls-300,.cls-301,.cls-302,.cls-303,.cls-304,.cls-305,.cls-306,.cls-307,.cls-308,.cls-31,.cls-32,.cls-33,.cls-34,.cls-35,.cls-36,.cls-37,.cls-38,.cls-39,.cls-40,.cls-41,.cls-42,.cls-43,.cls-44,.cls-45,.cls-46,.cls-47,.cls-48,.cls-49,.cls-50,.cls-51,.cls-52,.cls-53,.cls-54,.cls-55,.cls-56,.cls-57,.cls-58,.cls-59,.cls-60,.cls-61,.cls-62,.cls-63,.cls-64,.cls-65,.cls-66,.cls-67,.cls-68,.cls-69,.cls-7,.cls-70,.cls-71,.cls-72,.cls-73,.cls-74,.cls-75,.cls-76,.cls-77,.cls-78,.cls-79,.cls-8,.cls-80,.cls-81,.cls-82,.cls-83,.cls-84,.cls-85,.cls-86,.cls-87,.cls-88,.cls-89,.cls-9,.cls-90,.cls-91,.cls-92,.cls-93,.cls-94,.cls-95,.cls-96,.cls-97,.cls-98,.cls-99{fill:none;stroke-miterlimit:10;}.cls-7{stroke:#000;stroke-width:0.15px;}.cls-8{stroke:#010101;stroke-width:0.15px;}.cls-9{stroke:#020202;stroke-width:0.15px;}.cls-10,.cls-11{stroke:#030303;}.cls-10{stroke-width:0.15px;}.cls-11{stroke-width:0.15px;}.cls-12{stroke:#040404;stroke-width:0.15px;}.cls-13{stroke:#050505;stroke-width:0.15px;}.cls-14{stroke:#060606;stroke-width:0.15px;}.cls-15{stroke:#070707;stroke-width:0.15px;}.cls-16,.cls-17{stroke:#080808;}.cls-16{stroke-width:0.16px;}.cls-17{stroke-width:0.16px;}.cls-18{stroke:#090909;stroke-width:0.16px;}.cls-19{stroke:#0a0a0a;stroke-width:0.16px;}.cls-20{stroke:#0b0b0b;stroke-width:0.16px;}.cls-21{stroke:#0c0c0c;stroke-width:0.16px;}.cls-22{stroke:#0d0d0d;stroke-width:0.16px;}.cls-23,.cls-24{stroke:#0e0e0e;}.cls-23{stroke-width:0.16px;}.cls-24{stroke-width:0.16px;}.cls-25{stroke:#0f0f0f;stroke-width:0.16px;}.cls-26{stroke:#101010;stroke-width:0.16px;}.cls-27{stroke:#111;stroke-width:0.16px;}.cls-28{stroke:#121212;stroke-width:0.16px;}.cls-29,.cls-30{stroke:#131313;}.cls-29{stroke-width:0.16px;}.cls-30{stroke-width:0.17px;}.cls-31{stroke:#141414;stroke-width:0.17px;}.cls-32{stroke:#151515;stroke-width:0.17px;}.cls-33{stroke:#161616;stroke-width:0.17px;}.cls-34{stroke:#171717;stroke-width:0.17px;}.cls-35{stroke:#181818;stroke-width:0.17px;}.cls-36,.cls-37{stroke:#191919;}.cls-36{stroke-width:0.17px;}.cls-37{stroke-width:0.17px;}.cls-38{stroke:#1a1a1a;stroke-width:0.17px;}.cls-39{stroke:#1b1b1b;stroke-width:0.17px;}.cls-40{stroke:#1c1c1c;stroke-width:0.17px;}.cls-41{stroke:#1d1d1d;stroke-width:0.17px;}.cls-42,.cls-43{stroke:#1e1e1e;}.cls-42{stroke-width:0.17px;}.cls-43{stroke-width:0.18px;}.cls-44{stroke:#1f1f1f;stroke-width:0.18px;}.cls-45{stroke:#202020;stroke-width:0.18px;}.cls-46{stroke:#212121;stroke-width:0.18px;}.cls-47{stroke:#222;stroke-width:0.18px;}.cls-48{stroke:#232323;stroke-width:0.18px;}.cls-49,.cls-50{stroke:#242424;}.cls-49{stroke-width:0.18px;}.cls-50{stroke-width:0.18px;}.cls-51{stroke:#252525;stroke-width:0.18px;}.cls-52{stroke:#262626;stroke-width:0.18px;}.cls-53{stroke:#272727;stroke-width:0.18px;}.cls-54{stroke:#282828;stroke-width:0.18px;}.cls-55{stroke:#292929;stroke-width:0.18px;}.cls-56,.cls-57{stroke:#2a2a2a;}.cls-56{stroke-width:0.18px;}.cls-57{stroke-width:0.19px;}.cls-58{stroke:#2b2b2b;stroke-width:0.19px;}.cls-59{stroke:#2c2c2c;stroke-width:0.19px;}.cls-60{stroke:#2d2d2d;stroke-width:0.19px;}.cls-61{stroke:#2e2e2e;stroke-width:0.19px;}.cls-62,.cls-63{stroke:#2f2f2f;}.cls-62{stroke-width:0.19px;}.cls-63{stroke-width:0.19px;}.cls-64{stroke:#303030;stroke-width:0.19px;}.cls-65{stroke:#313131;stroke-width:0.19px;}.cls-66{stroke:#323232;stroke-width:0.19px;}.cls-67{stroke:#333;stroke-width:0.19px;}.cls-68{stroke:#343434;stroke-width:0.19px;}.cls-69,.cls-70{stroke:#353535;}.cls-69{stroke-width:0.19px;}.cls-70{stroke-width:0.19px;}.cls-71{stroke:#363636;stroke-width:0.2px;}.cls-72{stroke:#373737;stroke-width:0.2px;}.cls-73{stroke:#383838;stroke-width:0.2px;}.cls-74{stroke:#393939;stroke-width:0.2px;}.cls-75,.cls-76{stroke:#3a3a3a;}.cls-75{stroke-width:0.2px;}.cls-76{stroke-width:0.2px;}.cls-77{stroke:#3b3b3b;stroke-width:0.2px;}.cls-78{stroke:#3c3c3c;stroke-width:0.2px;}.cls-79{stroke:#3d3d3d;stroke-width:0.2px;}.cls-80{stroke:#3e3e3e;stroke-width:0.2px;}.cls-81{stroke:#3f3f3f;stroke-width:0.2px;}.cls-82,.cls-83{stroke:#404040;}.cls-82{stroke-width:0.2px;}.cls-83{stroke-width:0.2px;}.cls-84{stroke:#414141;stroke-width:0.21px;}.cls-85{stroke:#424242;stroke-width:0.21px;}.cls-86{stroke:#434343;stroke-width:0.21px;}.cls-87{stroke:#444;stroke-width:0.21px;}.cls-88,.cls-89{stroke:#454545;}.cls-88{stroke-width:0.21px;}.cls-89{stroke-width:0.21px;}.cls-90{stroke:#464646;stroke-width:0.21px;}.cls-91{stroke:#474747;stroke-width:0.21px;}.cls-92{stroke:#484848;stroke-width:0.21px;}.cls-93{stroke:#494949;stroke-width:0.21px;}.cls-94{stroke:#4a4a4a;stroke-width:0.21px;}.cls-95,.cls-96{stroke:#4b4b4b;}.cls-95{stroke-width:0.21px;}.cls-96{stroke-width:0.21px;}.cls-97{stroke:#4c4c4c;stroke-width:0.21px;}.cls-98{stroke:#4d4d4d;stroke-width:0.22px;}.cls-99{stroke:#4e4e4e;stroke-width:0.22px;}.cls-100{stroke:#4f4f4f;stroke-width:0.22px;}.cls-101,.cls-102{stroke:#505050;}.cls-101{stroke-width:0.22px;}.cls-102{stroke-width:0.22px;}.cls-103{stroke:#515151;stroke-width:0.22px;}.cls-104{stroke:#525252;stroke-width:0.22px;}.cls-105{stroke:#535353;stroke-width:0.22px;}.cls-106{stroke:#545454;stroke-width:0.22px;}.cls-107{stroke:#555;stroke-width:0.22px;}.cls-108,.cls-109{stroke:#565656;}.cls-108{stroke-width:0.22px;}.cls-109{stroke-width:0.22px;}.cls-110{stroke:#575757;stroke-width:0.22px;}.cls-111{stroke:#585858;stroke-width:0.23px;}.cls-112{stroke:#595959;stroke-width:0.23px;}.cls-113{stroke:#5a5a5a;stroke-width:0.23px;}.cls-114,.cls-115{stroke:#5b5b5b;}.cls-114{stroke-width:0.23px;}.cls-115{stroke-width:0.23px;}.cls-116{stroke:#5c5c5c;stroke-width:0.23px;}.cls-117{stroke:#5d5d5d;stroke-width:0.23px;}.cls-118{stroke:#5e5e5e;stroke-width:0.23px;}.cls-119{stroke:#5f5f5f;stroke-width:0.23px;}.cls-120{stroke:#606060;stroke-width:0.23px;}.cls-121,.cls-122{stroke:#616161;}.cls-121{stroke-width:0.23px;}.cls-122{stroke-width:0.23px;}.cls-123{stroke:#626262;stroke-width:0.23px;}.cls-124{stroke:#636363;stroke-width:0.23px;}.cls-125{stroke:#646464;stroke-width:0.24px;}.cls-126{stroke:#656565;stroke-width:0.24px;}.cls-127{stroke:#666;stroke-width:0.24px;}.cls-128,.cls-129{stroke:#676767;}.cls-128{stroke-width:0.24px;}.cls-129{stroke-width:0.24px;}.cls-130{stroke:#686868;stroke-width:0.24px;}.cls-131{stroke:#696969;stroke-width:0.24px;}.cls-132{stroke:#6a6a6a;stroke-width:0.24px;}.cls-133{stroke:#6b6b6b;stroke-width:0.24px;}.cls-134,.cls-135{stroke:#6c6c6c;}.cls-134{stroke-width:0.24px;}.cls-135{stroke-width:0.24px;}.cls-136{stroke:#6d6d6d;stroke-width:0.24px;}.cls-137{stroke:#6e6e6e;stroke-width:0.24px;}.cls-138{stroke:#6f6f6f;stroke-width:0.25px;}.cls-139{stroke:#707070;stroke-width:0.25px;}.cls-140{stroke:#717171;stroke-width:0.25px;}.cls-141,.cls-142{stroke:#727272;}.cls-141{stroke-width:0.25px;}.cls-142{stroke-width:0.25px;}.cls-143{stroke:#737373;stroke-width:0.25px;}.cls-144{stroke:#747474;stroke-width:0.25px;}.cls-145{stroke:#757575;stroke-width:0.25px;}.cls-146{stroke:#767676;stroke-width:0.25px;}.cls-147,.cls-148{stroke:#777;}.cls-147{stroke-width:0.25px;}.cls-148{stroke-width:0.25px;}.cls-149{stroke:#787878;stroke-width:0.25px;}.cls-150{stroke:#797979;stroke-width:0.25px;}.cls-151{stroke:#7a7a7a;stroke-width:0.25px;}.cls-152{stroke:#7b7b7b;stroke-width:0.26px;}.cls-153{stroke:#7c7c7c;stroke-width:0.26px;}.cls-154,.cls-155{stroke:#7d7d7d;}.cls-154{stroke-width:0.26px;}.cls-155{stroke-width:0.26px;}.cls-156{stroke:#7e7e7e;stroke-width:0.26px;}.cls-157{stroke:#7f7f7f;stroke-width:0.26px;}.cls-158{stroke:gray;stroke-width:0.26px;}.cls-159{stroke:#818181;stroke-width:0.26px;}.cls-160,.cls-161{stroke:#828282;}.cls-160{stroke-width:0.26px;}.cls-161{stroke-width:0.26px;}.cls-162{stroke:#838383;stroke-width:0.26px;}.cls-163{stroke:#848484;stroke-width:0.26px;}.cls-164{stroke:#858585;stroke-width:0.26px;}.cls-165{stroke:#868686;stroke-width:0.27px;}.cls-166{stroke:#878787;stroke-width:0.27px;}.cls-167,.cls-168{stroke:#888;}.cls-167{stroke-width:0.27px;}.cls-168{stroke-width:0.27px;}.cls-169{stroke:#898989;stroke-width:0.27px;}.cls-170{stroke:#8a8a8a;stroke-width:0.27px;}.cls-171{stroke:#8b8b8b;stroke-width:0.27px;}.cls-172{stroke:#8c8c8c;stroke-width:0.27px;}.cls-173,.cls-174{stroke:#8d8d8d;}.cls-173{stroke-width:0.27px;}.cls-174{stroke-width:0.27px;}.cls-175{stroke:#8e8e8e;stroke-width:0.27px;}.cls-176{stroke:#8f8f8f;stroke-width:0.27px;}.cls-177{stroke:#909090;stroke-width:0.27px;}.cls-178{stroke:#919191;stroke-width:0.27px;}.cls-179{stroke:#929292;stroke-width:0.28px;}.cls-180,.cls-181{stroke:#939393;}.cls-180{stroke-width:0.28px;}.cls-181{stroke-width:0.28px;}.cls-182{stroke:#949494;stroke-width:0.28px;}.cls-183{stroke:#959595;stroke-width:0.28px;}.cls-184{stroke:#969696;stroke-width:0.28px;}.cls-185{stroke:#979797;stroke-width:0.28px;}.cls-186,.cls-187{stroke:#989898;}.cls-186{stroke-width:0.28px;}.cls-187{stroke-width:0.28px;}.cls-188{stroke:#999;stroke-width:0.28px;}.cls-189{stroke:#9a9a9a;stroke-width:0.28px;}.cls-190{stroke:#9b9b9b;stroke-width:0.28px;}.cls-191{stroke:#9c9c9c;stroke-width:0.28px;}.cls-192{stroke:#9d9d9d;stroke-width:0.29px;}.cls-193,.cls-194{stroke:#9e9e9e;}.cls-193{stroke-width:0.29px;}.cls-194{stroke-width:0.29px;}.cls-195{stroke:#9f9f9f;stroke-width:0.29px;}.cls-196{stroke:#a0a0a0;stroke-width:0.29px;}.cls-197{stroke:#a1a1a1;stroke-width:0.29px;}.cls-198{stroke:#a2a2a2;stroke-width:0.29px;}.cls-199{stroke:#a3a3a3;stroke-width:0.29px;}.cls-200,.cls-201{stroke:#a4a4a4;}.cls-200{stroke-width:0.29px;}.cls-201{stroke-width:0.29px;}.cls-202{stroke:#a5a5a5;stroke-width:0.29px;}.cls-203{stroke:#a6a6a6;stroke-width:0.29px;}.cls-204{stroke:#a7a7a7;stroke-width:0.29px;}.cls-205{stroke:#a8a8a8;stroke-width:0.29px;}.cls-206,.cls-207{stroke:#a9a9a9;}.cls-206{stroke-width:0.3px;}.cls-207{stroke-width:0.3px;}.cls-208{stroke:#aaa;stroke-width:0.3px;}.cls-209{stroke:#ababab;stroke-width:0.3px;}.cls-210{stroke:#acacac;stroke-width:0.3px;}.cls-211{stroke:#adadad;stroke-width:0.3px;}.cls-212{stroke:#aeaeae;stroke-width:0.3px;}.cls-213,.cls-214{stroke:#afafaf;}.cls-213{stroke-width:0.3px;}.cls-214{stroke-width:0.3px;}.cls-215{stroke:#b0b0b0;stroke-width:0.3px;}.cls-216{stroke:#b1b1b1;stroke-width:0.3px;}.cls-217{stroke:#b2b2b2;stroke-width:0.3px;}.cls-218{stroke:#b3b3b3;stroke-width:0.3px;}.cls-219,.cls-220{stroke:#b4b4b4;}.cls-219{stroke-width:0.31px;}.cls-220{stroke-width:0.31px;}.cls-221{stroke:#b5b5b5;stroke-width:0.31px;}.cls-222{stroke:#b6b6b6;stroke-width:0.31px;}.cls-223{stroke:#b7b7b7;stroke-width:0.31px;}.cls-224{stroke:#b8b8b8;stroke-width:0.31px;}.cls-225{stroke:#b9b9b9;stroke-width:0.31px;}.cls-226,.cls-227{stroke:#bababa;}.cls-226{stroke-width:0.31px;}.cls-227{stroke-width:0.31px;}.cls-228{stroke:#bbb;stroke-width:0.31px;}.cls-229{stroke:#bcbcbc;stroke-width:0.31px;}.cls-230{stroke:#bdbdbd;stroke-width:0.31px;}.cls-231{stroke:#bebebe;stroke-width:0.31px;}.cls-232,.cls-233{stroke:#bfbfbf;}.cls-232{stroke-width:0.31px;}.cls-233{stroke-width:0.32px;}.cls-234{stroke:silver;stroke-width:0.32px;}.cls-235{stroke:#c1c1c1;stroke-width:0.32px;}.cls-236{stroke:#c2c2c2;stroke-width:0.32px;}.cls-237{stroke:#c3c3c3;stroke-width:0.32px;}.cls-238{stroke:#c4c4c4;stroke-width:0.32px;}.cls-239,.cls-240{stroke:#c5c5c5;}.cls-239{stroke-width:0.32px;}.cls-240{stroke-width:0.32px;}.cls-241{stroke:#c6c6c6;stroke-width:0.32px;}.cls-242{stroke:#c7c7c7;stroke-width:0.32px;}.cls-243{stroke:#c8c8c8;stroke-width:0.32px;}.cls-244{stroke:#c9c9c9;stroke-width:0.32px;}.cls-245,.cls-246{stroke:#cacaca;}.cls-245{stroke-width:0.32px;}.cls-246{stroke-width:0.33px;}.cls-247{stroke:#cbcbcb;stroke-width:0.33px;}.cls-248{stroke:#ccc;stroke-width:0.33px;}.cls-249{stroke:#cdcdcd;stroke-width:0.33px;}.cls-250{stroke:#cecece;stroke-width:0.33px;}.cls-251{stroke:#cfcfcf;stroke-width:0.33px;}.cls-252,.cls-253{stroke:#d0d0d0;}.cls-252{stroke-width:0.33px;}.cls-253{stroke-width:0.33px;}.cls-254{stroke:#d1d1d1;stroke-width:0.33px;}.cls-255{stroke:#d2d2d2;stroke-width:0.33px;}.cls-256{stroke:#d3d3d3;stroke-width:0.33px;}.cls-257{stroke:#d4d4d4;stroke-width:0.33px;}.cls-258,.cls-259{stroke:#d5d5d5;}.cls-258{stroke-width:0.33px;}.cls-259{stroke-width:0.33px;}.cls-260{stroke:#d6d6d6;stroke-width:0.34px;}.cls-261{stroke:#d7d7d7;stroke-width:0.34px;}.cls-262{stroke:#d8d8d8;stroke-width:0.34px;}.cls-263{stroke:#d9d9d9;stroke-width:0.34px;}.cls-264{stroke:#dadada;stroke-width:0.34px;}.cls-265,.cls-266{stroke:#dbdbdb;}.cls-265{stroke-width:0.34px;}.cls-266{stroke-width:0.34px;}.cls-267{stroke:#dcdcdc;stroke-width:0.34px;}.cls-268{stroke:#ddd;stroke-width:0.34px;}.cls-269{stroke:#dedede;stroke-width:0.34px;}.cls-270{stroke:#dfdfdf;stroke-width:0.34px;}.cls-271{stroke:#e0e0e0;stroke-width:0.34px;}.cls-272,.cls-273{stroke:#e1e1e1;}.cls-272{stroke-width:0.34px;}.cls-273{stroke-width:0.35px;}.cls-274{stroke:#e2e2e2;stroke-width:0.35px;}.cls-275{stroke:#e3e3e3;stroke-width:0.35px;}.cls-276{stroke:#e4e4e4;stroke-width:0.35px;}.cls-277{stroke:#e5e5e5;stroke-width:0.35px;}.cls-278,.cls-279{stroke:#e6e6e6;}.cls-278{stroke-width:0.35px;}.cls-279{stroke-width:0.35px;}.cls-280{stroke:#e7e7e7;stroke-width:0.35px;}.cls-281{stroke:#e8e8e8;stroke-width:0.35px;}.cls-282{stroke:#e9e9e9;stroke-width:0.35px;}.cls-283{stroke:#eaeaea;stroke-width:0.35px;}.cls-284{stroke:#ebebeb;stroke-width:0.35px;}.cls-285,.cls-286{stroke:#ececec;}.cls-285{stroke-width:0.35px;}.cls-286{stroke-width:0.35px;}.cls-287{stroke:#ededed;stroke-width:0.36px;}.cls-288{stroke:#eee;stroke-width:0.36px;}.cls-289{stroke:#efefef;stroke-width:0.36px;}.cls-290{stroke:#f0f0f0;stroke-width:0.36px;}.cls-291,.cls-292{stroke:#f1f1f1;}.cls-291{stroke-width:0.36px;}.cls-292{stroke-width:0.36px;}.cls-293{stroke:#f2f2f2;stroke-width:0.36px;}.cls-294{stroke:#f3f3f3;stroke-width:0.36px;}.cls-295{stroke:#f4f4f4;stroke-width:0.36px;}.cls-296{stroke:#f5f5f5;stroke-width:0.36px;}.cls-297{stroke:#f6f6f6;stroke-width:0.36px;}.cls-298,.cls-299{stroke:#f7f7f7;}.cls-298{stroke-width:0.36px;}.cls-299{stroke-width:0.36px;}.cls-300{stroke:#f8f8f8;stroke-width:0.37px;}.cls-301{stroke:#f9f9f9;stroke-width:0.37px;}.cls-302{stroke:#fafafa;stroke-width:0.37px;}.cls-303{stroke:#fbfbfb;stroke-width:0.37px;}.cls-304,.cls-305{stroke:#fcfcfc;}.cls-304{stroke-width:0.37px;}.cls-305{stroke-width:0.37px;}.cls-306{stroke:#fdfdfd;stroke-width:0.37px;}.cls-307{stroke:#fefefe;stroke-width:0.37px;}.cls-308{stroke:#fff;stroke-width:0.37px;}</style><radialGradient id="radial-gradient" cx="59.85" cy="60.71" r="41.86" gradientUnits="userSpaceOnUse"><stop offset="0.3" stop-color="#fff"/><stop offset="1"/></radialGradient></defs><title>S</title><g class="cls-1"><g id="Layer_1" data-name="Layer 1"><rect class="cls-2" x="-0.9" y="-1" width="121.8" height="121"/><polygon class="cls-3" points="82.22 21.95 37.47 21.95 15.1 60.71 37.47 99.46 82.22 99.46 104.6 60.71 82.22 21.95"/><path class="cls-4" d="M60.43,44a22.6,22.6,0,0,1,7.2-3.41,37.81,37.81,0,0,0-5.84,4.18,5.49,5.49,0,0,0-1.49,2.19,2.8,2.8,0,0,0,.15,1.93,25.18,25.18,0,0,0,1.89,2.89,3.09,3.09,0,0,1,.24,2.8,7.49,7.49,0,0,1-2.92,3.09c-.16.09-.29.26-.48.28a3.87,3.87,0,0,0,1.38-2.86,3.44,3.44,0,0,0-1-2.12,6.56,6.56,0,0,1-1.89-4.73A6.43,6.43,0,0,1,60.43,44Z"/><path class="cls-5" d="M74.87,57.83a4.05,4.05,0,0,1,2.73-1.19A6,6,0,0,1,82.44,58a4.4,4.4,0,0,1,1.47,3.86A6.82,6.82,0,0,1,81.34,66a20.57,20.57,0,0,1-7.86,3.68,2.53,2.53,0,0,1,.55-.48,19.11,19.11,0,0,0,5.76-4.41,5.26,5.26,0,0,0,1.35-4.23A4.11,4.11,0,0,0,77.3,57.4a8.39,8.39,0,0,0-2.43.43Z"/><path class="cls-5" d="M79.27,59.22a4,4,0,0,0-3.24-.9,4.56,4.56,0,0,0-1.1.28,4,4,0,0,1,3.21.9,2.9,2.9,0,0,1,1,2.59,4.64,4.64,0,0,1-1.72,2.77,12.81,12.81,0,0,1-4,2.1l-.1.08a13.94,13.94,0,0,0,5.27-2.46,4.61,4.61,0,0,0,1.73-2.77A3,3,0,0,0,79.27,59.22Z"/><path class="cls-5" d="M77.68,60.26a2.84,2.84,0,0,0-2.26-.63,3.36,3.36,0,0,0-.77.2,2.82,2.82,0,0,1,2.25.63,2,2,0,0,1,.69,1.8,3.19,3.19,0,0,1-1.21,1.93,8.64,8.64,0,0,1-2.82,1.47s0,0-.07.06A9.79,9.79,0,0,0,77.17,64a3.2,3.2,0,0,0,1.2-1.93A2.06,2.06,0,0,0,77.68,60.26Z"/><path class="cls-5" d="M42.45,59.61a23.14,23.14,0,0,1,9.42-2.14,36.36,36.36,0,0,0-5.58,1.91,2.55,2.55,0,0,0-1.14.88c-.12.34.23.56.49.67a12.05,12.05,0,0,0,3.49.6,96.6,96.6,0,0,0,12.39-.27c4.07-.3,8.1-.88,12.11-1.57a22.38,22.38,0,0,0-2.6,1.4,4.2,4.2,0,0,1-1.4.5,75.21,75.21,0,0,1-15,1.66c-2,0-3.88,0-5.82-.09a32.63,32.63,0,0,1-6.46-.81,4.23,4.23,0,0,1-1.75-.79.56.56,0,0,1,0-.81,6.43,6.43,0,0,1,1.92-1.14Z"/><path class="cls-5" d="M46.33,66.46A9.71,9.71,0,0,1,49.15,65c-.32.4-.77.77-.79,1.3a.9.9,0,0,0,.54.76,5.06,5.06,0,0,0,1.73.43,55.17,55.17,0,0,0,9.36.2,70.23,70.23,0,0,0,8.51-1.19,9.39,9.39,0,0,0,2.68,1.63,50.71,50.71,0,0,1-10.41,2,44.12,44.12,0,0,1-10-.23,13.9,13.9,0,0,1-3.85-1.09,2.1,2.1,0,0,1-1.19-1.15,1.3,1.3,0,0,1,.61-1.2Z"/><path class="cls-5" d="M48.26,73.48a7.14,7.14,0,0,1,2.56-1.19c-.29.28-.8.62-.57,1.09.44.56,1.25.61,1.89.75a40.42,40.42,0,0,0,8.22.28,54.57,54.57,0,0,0,6.11-.92,28.79,28.79,0,0,0,3.63,1.74,26.15,26.15,0,0,1-6,1.85,31.52,31.52,0,0,1-10.48.25A14.71,14.71,0,0,1,49.13,76a2.77,2.77,0,0,1-1.34-1.25,1.17,1.17,0,0,1,.47-1.26Z"/><path class="cls-5" d="M39.63,78.13a16.41,16.41,0,0,1,4.57-1,3.46,3.46,0,0,1,1.83.32,14,14,0,0,0-5.41,1.49,1.8,1.8,0,0,0-.92.9c0,.5.57.66.94.81A29.82,29.82,0,0,0,48,82a126,126,0,0,0,22-.43,49.41,49.41,0,0,0,8.2-1.45,4.57,4.57,0,0,0,2.38-1.36,1.13,1.13,0,0,0-.24-1.4c.55.3,1.33.68,1.22,1.42s-1,1.19-1.63,1.57a26.19,26.19,0,0,1-6.58,2.11,89.68,89.68,0,0,1-20,1.58,111.79,111.79,0,0,1-15.06-1.37,4.74,4.74,0,0,1-2.54-1.06c-.42-.48-.06-1.16.34-1.52a10.58,10.58,0,0,1,3.58-2Z"/><path class="cls-5" d="M79.62,83.26a10.86,10.86,0,0,0,4.56-2.5,4.46,4.46,0,0,1-2.59,3,25.5,25.5,0,0,1-7.38,2.27,94.74,94.74,0,0,1-16.32,1.12,63.2,63.2,0,0,1-11.16-.92,8.51,8.51,0,0,1-2.58-.9,77.88,77.88,0,0,0,9.89.81,105.72,105.72,0,0,0,16.29-.88,56.23,56.23,0,0,0,9.29-2Z"/><path class="cls-4" d="M59,29.38a5.28,5.28,0,0,1,1.77,4.2,10.09,10.09,0,0,1-1.65,4.88,22.47,22.47,0,0,1-2.53,3.29,12.5,12.5,0,0,0-2.68,4,4.59,4.59,0,0,0,.24,3.85c1.07,2,3,3.32,4.29,5.18C57.28,54,56.12,53.25,55,52.4a13.94,13.94,0,0,1-3.09-3.09,4.15,4.15,0,0,1-.76-2.93,6.87,6.87,0,0,1,1.34-2.82c1.67-2.31,3.88-4.16,5.5-6.49a8.18,8.18,0,0,0,1.64-4.33A8.07,8.07,0,0,0,59,29.38Z"/><path class="cls-4" d="M70,38.57A13.34,13.34,0,0,1,75.63,37a28,28,0,0,0-5,2.62A6.14,6.14,0,0,0,69,41.32a4.19,4.19,0,0,0-.56,1.86,29.29,29.29,0,0,0,.19,3.15A4.51,4.51,0,0,1,67.8,49,7.14,7.14,0,0,1,65,51.27c-.13,0-.27.18-.39.16A4.87,4.87,0,0,0,66.38,49a4.37,4.37,0,0,0,.08-2.23,8.65,8.65,0,0,1,.43-4.88A7.12,7.12,0,0,1,70,38.57Z"/><g class="cls-6"><polyline class="cls-7" points="15.27 60.8 37.65 99.55 82.02 99.55"/><polyline class="cls-8" points="15.25 60.83 37.63 99.59 82 99.59"/><polyline class="cls-9" points="15.23 60.87 37.61 99.62 81.98 99.62"/><polyline class="cls-10" points="15.22 60.9 37.59 99.66 81.96 99.66"/><polyline class="cls-11" points="15.2 60.94 37.57 99.69 81.94 99.69"/><polyline class="cls-12" points="15.18 60.97 37.55 99.73 81.92 99.73"/><polyline class="cls-13" points="15.16 61.01 37.53 99.76 81.91 99.76"/><polyline class="cls-14" points="15.14 61.04 37.52 99.8 81.89 99.8"/><polyline class="cls-15" points="15.12 61.08 37.5 99.83 81.87 99.83"/><polyline class="cls-16" points="15.1 61.11 37.48 99.86 81.85 99.86"/><polyline class="cls-17" points="15.09 61.15 37.46 99.9 81.83 99.9"/><polyline class="cls-18" points="15.07 61.18 37.44 99.93 81.81 99.93"/><polyline class="cls-19" points="15.05 61.21 37.42 99.97 81.79 99.97"/><polyline class="cls-20" points="15.03 61.25 37.4 100 81.77 100"/><polyline class="cls-21" points="15.01 61.28 37.38 100.04 81.75 100.04"/><polyline class="cls-22" points="14.99 61.32 37.37 100.07 81.73 100.07"/><polyline class="cls-23" points="14.97 61.35 37.35 100.11 81.71 100.11"/><polyline class="cls-24" points="14.95 61.39 37.33 100.14 81.69 100.14"/><polyline class="cls-25" points="14.94 61.42 37.31 100.17 81.67 100.17"/><polyline class="cls-26" points="14.92 61.45 37.29 100.21 81.66 100.21"/><polyline class="cls-27" points="14.9 61.49 37.27 100.24 81.64 100.24"/><polyline class="cls-28" points="14.88 61.52 37.25 100.28 81.62 100.28"/><polyline class="cls-29" points="14.86 61.56 37.23 100.31 81.6 100.31"/><polyline class="cls-30" points="14.84 61.59 37.22 100.35 81.58 100.35"/><polyline class="cls-31" points="14.82 61.63 37.2 100.38 81.56 100.38"/><polyline class="cls-32" points="14.8 61.66 37.18 100.42 81.54 100.42"/><polyline class="cls-33" points="14.79 61.7 37.16 100.45 81.52 100.45"/><polyline class="cls-34" points="14.77 61.73 37.14 100.49 81.5 100.49"/><polyline class="cls-35" points="14.75 61.77 37.12 100.52 81.48 100.52"/><polyline class="cls-36" points="14.73 61.8 37.1 100.56 81.46 100.56"/><polyline class="cls-37" points="14.71 61.84 37.09 100.59 81.44 100.59"/><polyline class="cls-38" points="14.69 61.87 37.07 100.62 81.42 100.62"/><polyline class="cls-39" points="14.67 61.9 37.05 100.66 81.41 100.66"/><polyline class="cls-40" points="14.65 61.94 37.03 100.69 81.39 100.69"/><polyline class="cls-41" points="14.64 61.97 37.01 100.73 81.37 100.73"/><polyline class="cls-42" points="14.62 62.01 36.99 100.76 81.35 100.76"/><polyline class="cls-43" points="14.6 62.04 36.97 100.8 81.33 100.8"/><polyline class="cls-44" points="14.58 62.08 36.95 100.83 81.31 100.83"/><polyline class="cls-45" points="14.56 62.11 36.94 100.86 81.29 100.86"/><polyline class="cls-46" points="14.54 62.15 36.92 100.9 81.27 100.9"/><polyline class="cls-47" points="14.52 62.18 36.9 100.93 81.25 100.93"/><polyline class="cls-48" points="14.51 62.21 36.88 100.97 81.23 100.97"/><polyline class="cls-49" points="14.49 62.25 36.86 101 81.21 101"/><polyline class="cls-50" points="14.47 62.28 36.84 101.04 81.19 101.04"/><polyline class="cls-51" points="14.45 62.32 36.82 101.07 81.17 101.07"/><polyline class="cls-52" points="14.43 62.35 36.8 101.11 81.16 101.11"/><polyline class="cls-53" points="14.41 62.39 36.79 101.14 81.14 101.14"/><polyline class="cls-54" points="14.39 62.42 36.77 101.18 81.12 101.18"/><polyline class="cls-55" points="14.37 62.46 36.75 101.21 81.1 101.21"/><polyline class="cls-56" points="14.36 62.49 36.73 101.25 81.08 101.25"/><polyline class="cls-57" points="14.34 62.52 36.71 101.28 81.06 101.28"/><polyline class="cls-58" points="14.32 62.56 36.69 101.31 81.04 101.31"/><polyline class="cls-59" points="14.3 62.59 36.67 101.35 81.02 101.35"/><polyline class="cls-60" points="14.28 62.63 36.66 101.38 81 101.38"/><polyline class="cls-61" points="14.26 62.66 36.64 101.42 80.98 101.42"/><polyline class="cls-62" points="14.24 62.7 36.62 101.45 80.96 101.45"/><polyline class="cls-63" points="14.22 62.73 36.6 101.49 80.94 101.49"/><polyline class="cls-64" points="14.21 62.77 36.58 101.52 80.92 101.52"/><polyline class="cls-65" points="14.19 62.8 36.56 101.56 80.91 101.56"/><polyline class="cls-66" points="14.17 62.84 36.54 101.59 80.89 101.59"/><polyline class="cls-67" points="14.15 62.87 36.52 101.62 80.87 101.62"/><polyline class="cls-68" points="14.13 62.91 36.51 101.66 80.85 101.66"/><polyline class="cls-69" points="14.11 62.94 36.49 101.69 80.83 101.69"/><polyline class="cls-70" points="14.09 62.97 36.47 101.73 80.81 101.73"/><polyline class="cls-71" points="14.07 63.01 36.45 101.76 80.79 101.76"/><polyline class="cls-72" points="14.05 63.04 36.43 101.8 80.77 101.8"/><polyline class="cls-73" points="14.04 63.08 36.41 101.83 80.75 101.83"/><polyline class="cls-74" points="14.02 63.11 36.39 101.87 80.73 101.87"/><polyline class="cls-75" points="14 63.15 36.37 101.9 80.71 101.9"/><polyline class="cls-76" points="13.98 63.18 36.35 101.94 80.69 101.94"/><polyline class="cls-77" points="13.96 63.22 36.34 101.97 80.67 101.97"/><polyline class="cls-78" points="13.94 63.25 36.32 102 80.66 102"/><polyline class="cls-79" points="13.92 63.28 36.3 102.04 80.64 102.04"/><polyline class="cls-80" points="13.9 63.32 36.28 102.07 80.62 102.07"/><polyline class="cls-81" points="13.89 63.35 36.26 102.11 80.6 102.11"/><polyline class="cls-82" points="13.87 63.39 36.24 102.14 80.58 102.14"/><polyline class="cls-83" points="13.85 63.42 36.22 102.18 80.56 102.18"/><polyline class="cls-84" points="13.83 63.46 36.2 102.21 80.54 102.21"/><polyline class="cls-85" points="13.81 63.49 36.19 102.25 80.52 102.25"/><polyline class="cls-86" points="13.79 63.53 36.17 102.28 80.5 102.28"/><polyline class="cls-87" points="13.77 63.56 36.15 102.31 80.48 102.31"/><polyline class="cls-88" points="13.76 63.59 36.13 102.35 80.46 102.35"/><polyline class="cls-89" points="13.74 63.63 36.11 102.38 80.44 102.38"/><polyline class="cls-90" points="13.72 63.66 36.09 102.42 80.42 102.42"/><polyline class="cls-91" points="13.7 63.7 36.07 102.45 80.41 102.45"/><polyline class="cls-92" points="13.68 63.73 36.05 102.49 80.39 102.49"/><polyline class="cls-93" points="13.66 63.77 36.04 102.52 80.37 102.52"/><polyline class="cls-94" points="13.64 63.8 36.02 102.56 80.35 102.56"/><polyline class="cls-95" points="13.62 63.84 36 102.59 80.33 102.59"/><polyline class="cls-96" points="13.61 63.87 35.98 102.63 80.31 102.63"/><polyline class="cls-97" points="13.59 63.91 35.96 102.66 80.29 102.66"/><polyline class="cls-98" points="13.57 63.94 35.94 102.69 80.27 102.69"/><polyline class="cls-99" points="13.55 63.97 35.92 102.73 80.25 102.73"/><polyline class="cls-100" points="13.53 64.01 35.91 102.76 80.23 102.76"/><polyline class="cls-101" points="13.51 64.04 35.89 102.8 80.21 102.8"/><polyline class="cls-102" points="13.49 64.08 35.87 102.83 80.19 102.83"/><polyline class="cls-103" points="13.47 64.11 35.85 102.87 80.17 102.87"/><polyline class="cls-104" points="13.46 64.15 35.83 102.9 80.16 102.9"/><polyline class="cls-105" points="13.44 64.18 35.81 102.94 80.14 102.94"/><polyline class="cls-106" points="13.42 64.22 35.79 102.97 80.12 102.97"/><polyline class="cls-107" points="13.4 64.25 35.77 103 80.1 103"/><polyline class="cls-108" points="13.38 64.28 35.76 103.04 80.08 103.04"/><polyline class="cls-109" points="13.36 64.32 35.74 103.07 80.06 103.07"/><polyline class="cls-110" points="13.34 64.35 35.72 103.11 80.04 103.11"/><polyline class="cls-111" points="13.32 64.39 35.7 103.14 80.02 103.14"/><polyline class="cls-112" points="13.31 64.42 35.68 103.18 80 103.18"/><polyline class="cls-113" points="13.29 64.46 35.66 103.21 79.98 103.21"/><polyline class="cls-114" points="13.27 64.49 35.64 103.25 79.96 103.25"/><polyline class="cls-115" points="13.25 64.53 35.62 103.28 79.94 103.28"/><polyline class="cls-116" points="13.23 64.56 35.61 103.31 79.92 103.31"/><polyline class="cls-117" points="13.21 64.6 35.59 103.35 79.91 103.35"/><polyline class="cls-118" points="13.19 64.63 35.57 103.38 79.89 103.38"/><polyline class="cls-119" points="13.18 64.67 35.55 103.42 79.87 103.42"/><polyline class="cls-120" points="13.16 64.7 35.53 103.45 79.85 103.45"/><polyline class="cls-121" points="13.14 64.73 35.51 103.49 79.83 103.49"/><polyline class="cls-122" points="13.12 64.77 35.49 103.52 79.81 103.52"/><polyline class="cls-123" points="13.1 64.8 35.48 103.56 79.79 103.56"/><polyline class="cls-124" points="13.08 64.84 35.46 103.59 79.77 103.59"/><polyline class="cls-125" points="13.06 64.87 35.44 103.63 79.75 103.63"/><polyline class="cls-126" points="13.04 64.91 35.42 103.66 79.73 103.66"/><polyline class="cls-127" points="13.03 64.94 35.4 103.69 79.71 103.69"/><polyline class="cls-128" points="13.01 64.97 35.38 103.73 79.69 103.73"/><polyline class="cls-129" points="12.99 65.01 35.36 103.76 79.67 103.76"/><polyline class="cls-130" points="12.97 65.04 35.34 103.8 79.66 103.8"/><polyline class="cls-131" points="12.95 65.08 35.33 103.83 79.64 103.83"/><polyline class="cls-132" points="12.93 65.11 35.31 103.87 79.62 103.87"/><polyline class="cls-133" points="12.91 65.15 35.29 103.9 79.6 103.9"/><polyline class="cls-134" points="12.89 65.18 35.27 103.94 79.58 103.94"/><polyline class="cls-135" points="12.88 65.22 35.25 103.97 79.56 103.97"/><polyline class="cls-136" points="12.86 65.25 35.23 104 79.54 104"/><polyline class="cls-137" points="12.84 65.29 35.21 104.04 79.52 104.04"/><polyline class="cls-138" points="12.82 65.32 35.19 104.07 79.5 104.07"/><polyline class="cls-139" points="12.8 65.36 35.17 104.11 79.48 104.11"/><polyline class="cls-140" points="12.78 65.39 35.16 104.14 79.46 104.14"/><polyline class="cls-141" points="12.76 65.42 35.14 104.18 79.44 104.18"/><polyline class="cls-142" points="12.74 65.46 35.12 104.21 79.42 104.21"/><polyline class="cls-143" points="12.72 65.49 35.1 104.25 79.41 104.25"/><polyline class="cls-144" points="12.71 65.53 35.08 104.28 79.39 104.28"/><polyline class="cls-145" points="12.69 65.56 35.06 104.32 79.37 104.32"/><polyline class="cls-146" points="12.67 65.6 35.04 104.35 79.35 104.35"/><polyline class="cls-147" points="12.65 65.63 35.02 104.39 79.33 104.39"/><polyline class="cls-148" points="12.63 65.67 35.01 104.42 79.31 104.42"/><polyline class="cls-149" points="12.61 65.7 34.99 104.45 79.29 104.45"/><polyline class="cls-150" points="12.59 65.73 34.97 104.49 79.27 104.49"/><polyline class="cls-151" points="12.57 65.77 34.95 104.52 79.25 104.52"/><polyline class="cls-152" points="12.56 65.8 34.93 104.56 79.23 104.56"/><polyline class="cls-153" points="12.54 65.84 34.91 104.59 79.21 104.59"/><polyline class="cls-154" points="12.52 65.87 34.89 104.63 79.19 104.63"/><polyline class="cls-155" points="12.5 65.91 34.88 104.66 79.17 104.66"/><polyline class="cls-156" points="12.48 65.94 34.86 104.7 79.16 104.7"/><polyline class="cls-157" points="12.46 65.98 34.84 104.73 79.14 104.73"/><polyline class="cls-158" points="12.44 66.01 34.82 104.77 79.12 104.77"/><polyline class="cls-159" points="12.43 66.05 34.8 104.8 79.1 104.8"/><polyline class="cls-160" points="12.41 66.08 34.78 104.83 79.08 104.83"/><polyline class="cls-161" points="12.39 66.11 34.76 104.87 79.06 104.87"/><polyline class="cls-162" points="12.37 66.15 34.74 104.9 79.04 104.9"/><polyline class="cls-163" points="12.35 66.18 34.73 104.94 79.02 104.94"/><polyline class="cls-164" points="12.33 66.22 34.71 104.97 79 104.97"/><polyline class="cls-165" points="12.31 66.25 34.69 105.01 78.98 105.01"/><polyline class="cls-166" points="12.29 66.29 34.67 105.04 78.96 105.04"/><polyline class="cls-167" points="12.28 66.32 34.65 105.08 78.94 105.08"/><polyline class="cls-168" points="12.26 66.36 34.63 105.11 78.92 105.11"/><polyline class="cls-169" points="12.24 66.39 34.61 105.14 78.91 105.14"/><polyline class="cls-170" points="12.22 66.42 34.59 105.18 78.89 105.18"/><polyline class="cls-171" points="12.2 66.46 34.58 105.21 78.87 105.21"/><polyline class="cls-172" points="12.18 66.49 34.56 105.25 78.85 105.25"/><polyline class="cls-173" points="12.16 66.53 34.54 105.28 78.83 105.28"/><polyline class="cls-174" points="12.14 66.56 34.52 105.32 78.81 105.32"/><polyline class="cls-175" points="12.13 66.6 34.5 105.35 78.79 105.35"/><polyline class="cls-176" points="12.11 66.63 34.48 105.39 78.77 105.39"/><polyline class="cls-177" points="12.09 66.67 34.46 105.42 78.75 105.42"/><polyline class="cls-178" points="12.07 66.7 34.44 105.45 78.73 105.45"/><polyline class="cls-179" points="12.05 66.73 34.42 105.49 78.71 105.49"/><polyline class="cls-180" points="12.03 66.77 34.41 105.52 78.69 105.52"/><polyline class="cls-181" points="12.01 66.8 34.39 105.56 78.67 105.56"/><polyline class="cls-182" points="11.99 66.84 34.37 105.59 78.66 105.59"/><polyline class="cls-183" points="11.98 66.87 34.35 105.63 78.64 105.63"/><polyline class="cls-184" points="11.96 66.91 34.33 105.66 78.62 105.66"/><polyline class="cls-185" points="11.94 66.94 34.31 105.7 78.6 105.7"/><polyline class="cls-186" points="11.92 66.98 34.29 105.73 78.58 105.73"/><polyline class="cls-187" points="11.9 67.01 34.28 105.77 78.56 105.77"/><polyline class="cls-188" points="11.88 67.05 34.26 105.8 78.54 105.8"/><polyline class="cls-189" points="11.86 67.08 34.24 105.83 78.52 105.83"/><polyline class="cls-190" points="11.85 67.11 34.22 105.87 78.5 105.87"/><polyline class="cls-191" points="11.83 67.15 34.2 105.9 78.48 105.9"/><polyline class="cls-192" points="11.81 67.18 34.18 105.94 78.46 105.94"/><polyline class="cls-193" points="11.79 67.22 34.16 105.97 78.44 105.97"/><polyline class="cls-194" points="11.77 67.25 34.15 106.01 78.42 106.01"/><polyline class="cls-195" points="11.75 67.29 34.13 106.04 78.41 106.04"/><polyline class="cls-196" points="11.73 67.32 34.11 106.08 78.39 106.08"/><polyline class="cls-197" points="11.71 67.36 34.09 106.11 78.37 106.11"/><polyline class="cls-198" points="11.7 67.39 34.07 106.14 78.35 106.14"/><polyline class="cls-199" points="11.68 67.42 34.05 106.18 78.33 106.18"/><polyline class="cls-200" points="11.66 67.46 34.03 106.21 78.31 106.21"/><polyline class="cls-201" points="11.64 67.49 34.01 106.25 78.29 106.25"/><polyline class="cls-202" points="11.62 67.53 33.99 106.28 78.27 106.28"/><polyline class="cls-203" points="11.6 67.56 33.98 106.32 78.25 106.32"/><polyline class="cls-204" points="11.58 67.6 33.96 106.35 78.23 106.35"/><polyline class="cls-205" points="11.56 67.63 33.94 106.39 78.21 106.39"/><polyline class="cls-206" points="11.54 67.67 33.92 106.42 78.19 106.42"/><polyline class="cls-207" points="11.53 67.7 33.9 106.45 78.17 106.45"/><polyline class="cls-208" points="11.51 67.74 33.88 106.49 78.16 106.49"/><polyline class="cls-209" points="11.49 67.77 33.86 106.52 78.14 106.52"/><polyline class="cls-210" points="11.47 67.81 33.84 106.56 78.12 106.56"/><polyline class="cls-211" points="11.45 67.84 33.83 106.59 78.1 106.59"/><polyline class="cls-212" points="11.43 67.87 33.81 106.63 78.08 106.63"/><polyline class="cls-213" points="11.41 67.91 33.79 106.66 78.06 106.66"/><polyline class="cls-214" points="11.39 67.94 33.77 106.7 78.04 106.7"/><polyline class="cls-215" points="11.38 67.98 33.75 106.73 78.02 106.73"/><polyline class="cls-216" points="11.36 68.01 33.73 106.77 78 106.77"/><polyline class="cls-217" points="11.34 68.05 33.71 106.8 77.98 106.8"/><polyline class="cls-218" points="11.32 68.08 33.7 106.83 77.96 106.83"/><polyline class="cls-219" points="11.3 68.11 33.68 106.87 77.94 106.87"/><polyline class="cls-220" points="11.28 68.15 33.66 106.9 77.92 106.9"/><polyline class="cls-221" points="11.26 68.18 33.64 106.94 77.91 106.94"/><polyline class="cls-222" points="11.24 68.22 33.62 106.97 77.89 106.97"/><polyline class="cls-223" points="11.23 68.25 33.6 107.01 77.87 107.01"/><polyline class="cls-224" points="11.21 68.29 33.58 107.04 77.85 107.04"/><polyline class="cls-225" points="11.19 68.32 33.56 107.08 77.83 107.08"/><polyline class="cls-226" points="11.17 68.36 33.55 107.11 77.81 107.11"/><polyline class="cls-227" points="11.15 68.39 33.53 107.15 77.79 107.15"/><polyline class="cls-228" points="11.13 68.43 33.51 107.18 77.77 107.18"/><polyline class="cls-229" points="11.11 68.46 33.49 107.22 77.75 107.22"/><polyline class="cls-230" points="11.1 68.5 33.47 107.25 77.73 107.25"/><polyline class="cls-231" points="11.08 68.53 33.45 107.28 77.71 107.28"/><polyline class="cls-232" points="11.06 68.56 33.43 107.32 77.69 107.32"/><polyline class="cls-233" points="11.04 68.6 33.41 107.35 77.67 107.35"/><polyline class="cls-234" points="11.02 68.63 33.4 107.39 77.66 107.39"/><polyline class="cls-235" points="11 68.67 33.38 107.42 77.64 107.42"/><polyline class="cls-236" points="10.98 68.7 33.36 107.46 77.62 107.46"/><polyline class="cls-237" points="10.96 68.74 33.34 107.49 77.6 107.49"/><polyline class="cls-238" points="10.95 68.77 33.32 107.53 77.58 107.53"/><polyline class="cls-239" points="10.93 68.81 33.3 107.56 77.56 107.56"/><polyline class="cls-240" points="10.91 68.84 33.28 107.59 77.54 107.59"/><polyline class="cls-241" points="10.89 68.87 33.26 107.63 77.52 107.63"/><polyline class="cls-242" points="10.87 68.91 33.24 107.66 77.5 107.66"/><polyline class="cls-243" points="10.85 68.94 33.23 107.7 77.48 107.7"/><polyline class="cls-244" points="10.83 68.98 33.21 107.73 77.46 107.73"/><polyline class="cls-245" points="10.81 69.01 33.19 107.77 77.44 107.77"/><polyline class="cls-246" points="10.8 69.05 33.17 107.8 77.42 107.8"/><polyline class="cls-247" points="10.78 69.08 33.15 107.84 77.41 107.84"/><polyline class="cls-248" points="10.76 69.12 33.13 107.87 77.39 107.87"/><polyline class="cls-249" points="10.74 69.15 33.11 107.91 77.37 107.91"/><polyline class="cls-250" points="10.72 69.19 33.09 107.94 77.35 107.94"/><polyline class="cls-251" points="10.7 69.22 33.08 107.97 77.33 107.97"/><polyline class="cls-252" points="10.68 69.25 33.06 108.01 77.31 108.01"/><polyline class="cls-253" points="10.66 69.29 33.04 108.04 77.29 108.04"/><polyline class="cls-254" points="10.65 69.32 33.02 108.08 77.27 108.08"/><polyline class="cls-255" points="10.63 69.36 33 108.11 77.25 108.11"/><polyline class="cls-256" points="10.61 69.39 32.98 108.15 77.23 108.15"/><polyline class="cls-257" points="10.59 69.43 32.96 108.18 77.21 108.18"/><polyline class="cls-258" points="10.57 69.46 32.95 108.22 77.19 108.22"/><polyline class="cls-259" points="10.55 69.5 32.93 108.25 77.17 108.25"/><polyline class="cls-260" points="10.53 69.53 32.91 108.28 77.16 108.28"/><polyline class="cls-261" points="10.52 69.56 32.89 108.32 77.14 108.32"/><polyline class="cls-262" points="10.5 69.6 32.87 108.35 77.12 108.35"/><polyline class="cls-263" points="10.48 69.63 32.85 108.39 77.1 108.39"/><polyline class="cls-264" points="10.46 69.67 32.83 108.42 77.08 108.42"/><polyline class="cls-265" points="10.44 69.7 32.81 108.46 77.06 108.46"/><polyline class="cls-266" points="10.42 69.74 32.8 108.49 77.04 108.49"/><polyline class="cls-267" points="10.4 69.77 32.78 108.53 77.02 108.53"/><polyline class="cls-268" points="10.38 69.81 32.76 108.56 77 108.56"/><polyline class="cls-269" points="10.37 69.84 32.74 108.59 76.98 108.59"/><polyline class="cls-270" points="10.35 69.88 32.72 108.63 76.96 108.63"/><polyline class="cls-271" points="10.33 69.91 32.7 108.66 76.94 108.66"/><polyline class="cls-272" points="10.31 69.94 32.68 108.7 76.92 108.7"/><polyline class="cls-273" points="10.29 69.98 32.66 108.73 76.91 108.73"/><polyline class="cls-274" points="10.27 70.01 32.65 108.77 76.89 108.77"/><polyline class="cls-275" points="10.25 70.05 32.63 108.8 76.87 108.8"/><polyline class="cls-276" points="10.23 70.08 32.61 108.84 76.85 108.84"/><polyline class="cls-277" points="10.21 70.12 32.59 108.87 76.83 108.87"/><polyline class="cls-278" points="10.2 70.15 32.57 108.91 76.81 108.91"/><polyline class="cls-279" points="10.18 70.19 32.55 108.94 76.79 108.94"/><polyline class="cls-280" points="10.16 70.22 32.53 108.97 76.77 108.97"/><polyline class="cls-281" points="10.14 70.25 32.52 109.01 76.75 109.01"/><polyline class="cls-282" points="10.12 70.29 32.5 109.04 76.73 109.04"/><polyline class="cls-283" points="10.1 70.32 32.48 109.08 76.71 109.08"/><polyline class="cls-284" points="10.08 70.36 32.46 109.11 76.69 109.11"/><polyline class="cls-285" points="10.06 70.39 32.44 109.15 76.67 109.15"/><polyline class="cls-286" points="10.05 70.43 32.42 109.18 76.66 109.18"/><polyline class="cls-287" points="10.03 70.46 32.4 109.22 76.64 109.22"/><polyline class="cls-288" points="10.01 70.5 32.38 109.25 76.62 109.25"/><polyline class="cls-289" points="9.99 70.53 32.37 109.28 76.6 109.28"/><polyline class="cls-290" points="9.97 70.56 32.35 109.32 76.58 109.32"/><polyline class="cls-291" points="9.95 70.6 32.33 109.35 76.56 109.35"/><polyline class="cls-292" points="9.93 70.63 32.31 109.39 76.54 109.39"/><polyline class="cls-293" points="9.91 70.67 32.29 109.42 76.52 109.42"/><polyline class="cls-294" points="9.9 70.7 32.27 109.46 76.5 109.46"/><polyline class="cls-295" points="9.88 70.74 32.25 109.49 76.48 109.49"/><polyline class="cls-296" points="9.86 70.77 32.23 109.53 76.46 109.53"/><polyline class="cls-297" points="9.84 70.81 32.22 109.56 76.44 109.56"/><polyline class="cls-298" points="9.82 70.84 32.2 109.6 76.42 109.6"/><polyline class="cls-299" points="9.8 70.88 32.18 109.63 76.41 109.63"/><polyline class="cls-300" points="9.78 70.91 32.16 109.67 76.39 109.67"/><polyline class="cls-301" points="9.77 70.94 32.14 109.7 76.37 109.7"/><polyline class="cls-302" points="9.75 70.98 32.12 109.73 76.35 109.73"/><polyline class="cls-303" points="9.73 71.01 32.1 109.77 76.33 109.77"/><polyline class="cls-304" points="9.71 71.05 32.08 109.8 76.31 109.8"/><polyline class="cls-305" points="9.69 71.08 32.06 109.84 76.29 109.84"/><polyline class="cls-306" points="9.67 71.12 32.05 109.87 76.27 109.87"/><polyline class="cls-307" points="9.65 71.15 32.03 109.91 76.25 109.91"/><polyline class="cls-308" points="9.63 71.19 32.01 109.94 76.23 109.94"/></g></g></g></svg>