<svg id="Layer_1" data-name="Layer 1" xmlns="http://www.w3.org/2000/svg" viewBox="0 0 120 121"><defs><style>.cls-1{fill:#92c671;opacity:0.85;}.cls-2{fill:#5ea044;}.cls-3{fill:#73b548;}</style></defs><title>spring frameworks-S copy 4</title><rect class="cls-1" x="-6.5" y="-7.95" width="133" height="136.89"/><path class="cls-2" d="M26.54,80.58c0-2.46,1-4.16,3.67-4.39a3.5,3.5,0,0,1,4,2.61c.59,2.14.16,4.07-2.41,4.76C29.5,83.48,27.22,83.44,26.54,80.58Z"/><path class="cls-2" d="M41.62,79.62c4.34-1.1,8.7-2.12,13-3.31A49.27,49.27,0,0,0,86.22,51c-.19-.88-.57-.29-.9-.12C74.2,65.28,58.7,71.27,41.31,73.6c-.32,0-.64,0-1,.06-2.77.28-5.56,2-8.22-.52A14.64,14.64,0,0,1,27.6,62.47c-.31-14.3,11.13-22.51,23-23.33,5.59-.39,11.22.35,16.76-.62,11.07-2,20.09-7.26,26.82-17a115.08,115.08,0,0,1,4.38,22.84,47.91,47.91,0,0,1-1.54,18.22C93.44,74.35,85,81,72.87,81.9c-7.9.56-15.71-.16-23.53-1.07-1.92-.23-3.86-.33-5.8-.48C42.82,80.32,41.78,81.13,41.62,79.62Z"/><path class="cls-3" d="M85.32,50.83c.38-.68.51-1.58,1.91-1.8-.42.79-.72,1.35-1,1.92Z"/></svg>